ISO-10303-21;
HEADER;
FILE_DESCRIPTION(('Open CASCADE Model'),'2;1');
FILE_NAME('bearing_626ZZ','2026-08-12T08:54:03',('Author'),(
    'Open CASCADE'),'Open CASCADE STEP processor 7.9','build123d',
  'Unknown');
FILE_SCHEMA(('AUTOMOTIVE_DESIGN { 1 0 10303 214 1 1 1 1 }'));
ENDSEC;
DATA;
#1 = APPLICATION_PROTOCOL_DEFINITION('international standard',
  'automotive_design',2000,#2);
#2 = APPLICATION_CONTEXT(
  'core data for automotive mechanical design processes');
#3 = SHAPE_DEFINITION_REPRESENTATION(#4,#10);
#4 = PRODUCT_DEFINITION_SHAPE('','',#5);
#5 = PRODUCT_DEFINITION('design','',#6,#9);
#6 = PRODUCT_DEFINITION_FORMATION('','',#7);
#7 = PRODUCT('bearing_626ZZ','bearing_626ZZ','',(#8));
#8 = PRODUCT_CONTEXT('',#2,'mechanical');
#9 = PRODUCT_DEFINITION_CONTEXT('part definition',#2,'design');
#10 = SHAPE_REPRESENTATION('',(#11,#15),#19);
#11 = AXIS2_PLACEMENT_3D('',#12,#13,#14);
#12 = CARTESIAN_POINT('',(0.,0.,0.));
#13 = DIRECTION('',(0.,0.,1.));
#14 = DIRECTION('',(1.,0.,-0.));
#15 = AXIS2_PLACEMENT_3D('',#16,#17,#18);
#16 = CARTESIAN_POINT('',(0.,0.,3.));
#17 = DIRECTION('',(0.,0.,1.));
#18 = DIRECTION('',(1.,0.,0.));
#19 = ( GEOMETRIC_REPRESENTATION_CONTEXT(3) 
GLOBAL_UNCERTAINTY_ASSIGNED_CONTEXT((#23)) GLOBAL_UNIT_ASSIGNED_CONTEXT(
(#20,#21,#22)) REPRESENTATION_CONTEXT('Context #1',
  '3D Context with UNIT and UNCERTAINTY') );
#20 = ( LENGTH_UNIT() NAMED_UNIT(*) SI_UNIT(.MILLI.,.METRE.) );
#21 = ( NAMED_UNIT(*) PLANE_ANGLE_UNIT() SI_UNIT($,.RADIAN.) );
#22 = ( NAMED_UNIT(*) SI_UNIT($,.STERADIAN.) SOLID_ANGLE_UNIT() );
#23 = UNCERTAINTY_MEASURE_WITH_UNIT(LENGTH_MEASURE(1.E-07),#20,
  'distance_accuracy_value','confusion accuracy');
#24 = PRODUCT_RELATED_PRODUCT_CATEGORY('part',$,(#7));
#25 = SHAPE_DEFINITION_REPRESENTATION(#26,#32);
#26 = PRODUCT_DEFINITION_SHAPE('','',#27);
#27 = PRODUCT_DEFINITION('design','',#28,#31);
#28 = PRODUCT_DEFINITION_FORMATION('','',#29);
#29 = PRODUCT('bearing_626ZZ','bearing_626ZZ','',(#30));
#30 = PRODUCT_CONTEXT('',#2,'mechanical');
#31 = PRODUCT_DEFINITION_CONTEXT('part definition',#2,'design');
#32 = SHAPE_REPRESENTATION('',(#11,#33,#37,#41,#45,#49,#53,#57,#61,#65,
    #69,#73,#77,#81,#85,#89,#93),#97);
#33 = AXIS2_PLACEMENT_3D('',#34,#35,#36);
#34 = CARTESIAN_POINT('',(0.,0.,0.));
#35 = DIRECTION('',(0.,0.,1.));
#36 = DIRECTION('',(1.,0.,-0.));
#37 = AXIS2_PLACEMENT_3D('',#38,#39,#40);
#38 = CARTESIAN_POINT('',(0.,0.,0.));
#39 = DIRECTION('',(0.,0.,1.));
#40 = DIRECTION('',(1.,0.,-0.));
#41 = AXIS2_PLACEMENT_3D('',#42,#43,#44);
#42 = CARTESIAN_POINT('',(6.575,0.,0.));
#43 = DIRECTION('',(0.,0.,1.));
#44 = DIRECTION('',(1.,0.,0.));
#45 = AXIS2_PLACEMENT_3D('',#46,#47,#48);
#46 = CARTESIAN_POINT('',(5.923870306458,2.852785584698,0.));
#47 = DIRECTION('',(0.,-0.,1.));
#48 = DIRECTION('',(0.900968867902,0.433883739118,0.));
#49 = AXIS2_PLACEMENT_3D('',#50,#51,#52);
#50 = CARTESIAN_POINT('',(4.099445447221,5.140541997227,0.));
#51 = DIRECTION('',(0.,-0.,1.));
#52 = DIRECTION('',(0.623489801859,0.781831482468,0.));
#53 = AXIS2_PLACEMENT_3D('',#54,#55,#56);
#54 = CARTESIAN_POINT('',(1.463075140763,6.410151022595,0.));
#55 = DIRECTION('',(0.,-0.,1.));
#56 = DIRECTION('',(0.222520933956,0.974927912182,0.));
#57 = AXIS2_PLACEMENT_3D('',#58,#59,#60);
#58 = CARTESIAN_POINT('',(-1.463075140763,6.410151022595,0.));
#59 = DIRECTION('',(0.,0.,1.));
#60 = DIRECTION('',(-0.222520933956,0.974927912182,0.));
#61 = AXIS2_PLACEMENT_3D('',#62,#63,#64);
#62 = CARTESIAN_POINT('',(-4.099445447221,5.140541997227,0.));
#63 = DIRECTION('',(0.,0.,1.));
#64 = DIRECTION('',(-0.623489801859,0.781831482468,0.));
#65 = AXIS2_PLACEMENT_3D('',#66,#67,#68);
#66 = CARTESIAN_POINT('',(-5.923870306458,2.852785584698,0.));
#67 = DIRECTION('',(0.,0.,1.));
#68 = DIRECTION('',(-0.900968867902,0.433883739118,0.));
#69 = AXIS2_PLACEMENT_3D('',#70,#71,#72);
#70 = CARTESIAN_POINT('',(-6.575,8.052052704394E-16,0.));
#71 = DIRECTION('',(0.,0.,1.));
#72 = DIRECTION('',(-1.,1.224646799147E-16,0.));
#73 = AXIS2_PLACEMENT_3D('',#74,#75,#76);
#74 = CARTESIAN_POINT('',(-5.923870306458,-2.852785584698,0.));
#75 = DIRECTION('',(0.,0.,1.));
#76 = DIRECTION('',(-0.900968867902,-0.433883739118,0.));
#77 = AXIS2_PLACEMENT_3D('',#78,#79,#80);
#78 = CARTESIAN_POINT('',(-4.099445447221,-5.140541997227,0.));
#79 = DIRECTION('',(0.,0.,1.));
#80 = DIRECTION('',(-0.623489801859,-0.781831482468,0.));
#81 = AXIS2_PLACEMENT_3D('',#82,#83,#84);
#82 = CARTESIAN_POINT('',(-1.463075140763,-6.410151022595,0.));
#83 = DIRECTION('',(0.,0.,1.));
#84 = DIRECTION('',(-0.222520933956,-0.974927912182,0.));
#85 = AXIS2_PLACEMENT_3D('',#86,#87,#88);
#86 = CARTESIAN_POINT('',(1.463075140763,-6.410151022595,0.));
#87 = DIRECTION('',(-0.,0.,1.));
#88 = DIRECTION('',(0.222520933956,-0.974927912182,0.));
#89 = AXIS2_PLACEMENT_3D('',#90,#91,#92);
#90 = CARTESIAN_POINT('',(4.099445447221,-5.140541997227,0.));
#91 = DIRECTION('',(-0.,0.,1.));
#92 = DIRECTION('',(0.623489801859,-0.781831482468,0.));
#93 = AXIS2_PLACEMENT_3D('',#94,#95,#96);
#94 = CARTESIAN_POINT('',(5.923870306458,-2.852785584698,0.));
#95 = DIRECTION('',(-0.,0.,1.));
#96 = DIRECTION('',(0.900968867902,-0.433883739118,0.));
#97 = ( GEOMETRIC_REPRESENTATION_CONTEXT(3) 
GLOBAL_UNCERTAINTY_ASSIGNED_CONTEXT((#101)) GLOBAL_UNIT_ASSIGNED_CONTEXT
((#98,#99,#100)) REPRESENTATION_CONTEXT('Context #1',
  '3D Context with UNIT and UNCERTAINTY') );
#98 = ( LENGTH_UNIT() NAMED_UNIT(*) SI_UNIT(.MILLI.,.METRE.) );
#99 = ( NAMED_UNIT(*) PLANE_ANGLE_UNIT() SI_UNIT($,.RADIAN.) );
#100 = ( NAMED_UNIT(*) SI_UNIT($,.STERADIAN.) SOLID_ANGLE_UNIT() );
#101 = UNCERTAINTY_MEASURE_WITH_UNIT(LENGTH_MEASURE(1.E-07),#98,
  'distance_accuracy_value','confusion accuracy');
#102 = CONTEXT_DEPENDENT_SHAPE_REPRESENTATION(#103,#105);
#103 = ( REPRESENTATION_RELATIONSHIP('','',#32,#10) 
REPRESENTATION_RELATIONSHIP_WITH_TRANSFORMATION(#104) 
SHAPE_REPRESENTATION_RELATIONSHIP() );
#104 = ITEM_DEFINED_TRANSFORMATION('','',#11,#15);
#105 = PRODUCT_DEFINITION_SHAPE('Placement','Placement of an item',#106
  );
#106 = NEXT_ASSEMBLY_USAGE_OCCURRENCE('17','bearing_626ZZ','',#5,#27,$);
#107 = PRODUCT_RELATED_PRODUCT_CATEGORY('part',$,(#29));
#108 = SHAPE_DEFINITION_REPRESENTATION(#109,#115);
#109 = PRODUCT_DEFINITION_SHAPE('','',#110);
#110 = PRODUCT_DEFINITION('design','',#111,#114);
#111 = PRODUCT_DEFINITION_FORMATION('','',#112);
#112 = PRODUCT('OuterRace','OuterRace','',(#113));
#113 = PRODUCT_CONTEXT('',#2,'mechanical');
#114 = PRODUCT_DEFINITION_CONTEXT('part definition',#2,'design');
#115 = ADVANCED_BREP_SHAPE_REPRESENTATION('',(#11,#116),#522);
#116 = MANIFOLD_SOLID_BREP('',#117);
#117 = CLOSED_SHELL('',(#118,#206,#262,#297,#353,#408,#464,#494));
#118 = ADVANCED_FACE('',(#119),#132,.F.);
#119 = FACE_BOUND('',#120,.F.);
#120 = EDGE_LOOP('',(#121,#155,#178,#205));
#121 = ORIENTED_EDGE('',*,*,#122,.T.);
#122 = EDGE_CURVE('',#123,#123,#125,.T.);
#123 = VERTEX_POINT('',#124);
#124 = CARTESIAN_POINT('',(7.6,0.,-2.7));
#125 = SURFACE_CURVE('',#126,(#131,#143),.PCURVE_S1.);
#126 = CIRCLE('',#127,7.6);
#127 = AXIS2_PLACEMENT_3D('',#128,#129,#130);
#128 = CARTESIAN_POINT('',(0.,0.,-2.7));
#129 = DIRECTION('',(0.,0.,1.));
#130 = DIRECTION('',(1.,0.,-0.));
#131 = PCURVE('',#132,#137);
#132 = CYLINDRICAL_SURFACE('',#133,7.600000019326);
#133 = AXIS2_PLACEMENT_3D('',#134,#135,#136);
#134 = CARTESIAN_POINT('',(0.,0.,0.));
#135 = DIRECTION('',(0.,0.,1.));
#136 = DIRECTION('',(1.,0.,-0.));
#137 = DEFINITIONAL_REPRESENTATION('',(#138),#142);
#138 = LINE('',#139,#140);
#139 = CARTESIAN_POINT('',(0.,-2.7));
#140 = VECTOR('',#141,1.);
#141 = DIRECTION('',(1.,0.));
#142 = ( GEOMETRIC_REPRESENTATION_CONTEXT(2) 
PARAMETRIC_REPRESENTATION_CONTEXT() REPRESENTATION_CONTEXT('2D SPACE',''
  ) );
#143 = PCURVE('',#144,#149);
#144 = TOROIDAL_SURFACE('',#145,7.899999980674,0.3);
#145 = AXIS2_PLACEMENT_3D('',#146,#147,#148);
#146 = CARTESIAN_POINT('',(0.,0.,-2.7));
#147 = DIRECTION('',(0.,0.,1.));
#148 = DIRECTION('',(1.,0.,-0.));
#149 = DEFINITIONAL_REPRESENTATION('',(#150),#154);
#150 = LINE('',#151,#152);
#151 = CARTESIAN_POINT('',(0.,3.14159265359));
#152 = VECTOR('',#153,1.);
#153 = DIRECTION('',(1.,0.));
#154 = ( GEOMETRIC_REPRESENTATION_CONTEXT(2) 
PARAMETRIC_REPRESENTATION_CONTEXT() REPRESENTATION_CONTEXT('2D SPACE',''
  ) );
#155 = ORIENTED_EDGE('',*,*,#156,.T.);
#156 = EDGE_CURVE('',#123,#157,#159,.T.);
#157 = VERTEX_POINT('',#158);
#158 = CARTESIAN_POINT('',(7.6,0.,2.7));
#159 = SEAM_CURVE('',#160,(#164,#171),.PCURVE_S1.);
#160 = LINE('',#161,#162);
#161 = CARTESIAN_POINT('',(7.600000019326,0.,0.));
#162 = VECTOR('',#163,1.);
#163 = DIRECTION('',(0.,0.,1.));
#164 = PCURVE('',#132,#165);
#165 = DEFINITIONAL_REPRESENTATION('',(#166),#170);
#166 = LINE('',#167,#168);
#167 = CARTESIAN_POINT('',(0.,0.));
#168 = VECTOR('',#169,1.);
#169 = DIRECTION('',(0.,1.));
#170 = ( GEOMETRIC_REPRESENTATION_CONTEXT(2) 
PARAMETRIC_REPRESENTATION_CONTEXT() REPRESENTATION_CONTEXT('2D SPACE',''
  ) );
#171 = PCURVE('',#132,#172);
#172 = DEFINITIONAL_REPRESENTATION('',(#173),#177);
#173 = LINE('',#174,#175);
#174 = CARTESIAN_POINT('',(6.28318530718,0.));
#175 = VECTOR('',#176,1.);
#176 = DIRECTION('',(0.,1.));
#177 = ( GEOMETRIC_REPRESENTATION_CONTEXT(2) 
PARAMETRIC_REPRESENTATION_CONTEXT() REPRESENTATION_CONTEXT('2D SPACE',''
  ) );
#178 = ORIENTED_EDGE('',*,*,#179,.F.);
#179 = EDGE_CURVE('',#157,#157,#180,.T.);
#180 = SURFACE_CURVE('',#181,(#186,#193),.PCURVE_S1.);
#181 = CIRCLE('',#182,7.6);
#182 = AXIS2_PLACEMENT_3D('',#183,#184,#185);
#183 = CARTESIAN_POINT('',(0.,0.,2.7));
#184 = DIRECTION('',(0.,0.,1.));
#185 = DIRECTION('',(1.,0.,-0.));
#186 = PCURVE('',#132,#187);
#187 = DEFINITIONAL_REPRESENTATION('',(#188),#192);
#188 = LINE('',#189,#190);
#189 = CARTESIAN_POINT('',(0.,2.7));
#190 = VECTOR('',#191,1.);
#191 = DIRECTION('',(1.,0.));
#192 = ( GEOMETRIC_REPRESENTATION_CONTEXT(2) 
PARAMETRIC_REPRESENTATION_CONTEXT() REPRESENTATION_CONTEXT('2D SPACE',''
  ) );
#193 = PCURVE('',#194,#199);
#194 = TOROIDAL_SURFACE('',#195,7.899999980674,0.3);
#195 = AXIS2_PLACEMENT_3D('',#196,#197,#198);
#196 = CARTESIAN_POINT('',(0.,0.,2.7));
#197 = DIRECTION('',(0.,0.,1.));
#198 = DIRECTION('',(1.,0.,-0.));
#199 = DEFINITIONAL_REPRESENTATION('',(#200),#204);
#200 = LINE('',#201,#202);
#201 = CARTESIAN_POINT('',(0.,3.14159265359));
#202 = VECTOR('',#203,1.);
#203 = DIRECTION('',(1.,0.));
#204 = ( GEOMETRIC_REPRESENTATION_CONTEXT(2) 
PARAMETRIC_REPRESENTATION_CONTEXT() REPRESENTATION_CONTEXT('2D SPACE',''
  ) );
#205 = ORIENTED_EDGE('',*,*,#156,.F.);
#206 = ADVANCED_FACE('',(#207),#144,.T.);
#207 = FACE_BOUND('',#208,.T.);
#208 = EDGE_LOOP('',(#209,#210,#234,#261));
#209 = ORIENTED_EDGE('',*,*,#122,.T.);
#210 = ORIENTED_EDGE('',*,*,#211,.T.);
#211 = EDGE_CURVE('',#123,#212,#214,.T.);
#212 = VERTEX_POINT('',#213);
#213 = CARTESIAN_POINT('',(7.899999980674,0.,-3.));
#214 = SEAM_CURVE('',#215,(#220,#227),.PCURVE_S1.);
#215 = CIRCLE('',#216,0.3);
#216 = AXIS2_PLACEMENT_3D('',#217,#218,#219);
#217 = CARTESIAN_POINT('',(7.899999980674,0.,-2.7));
#218 = DIRECTION('',(0.,-1.,0.));
#219 = DIRECTION('',(1.,0.,0.));
#220 = PCURVE('',#144,#221);
#221 = DEFINITIONAL_REPRESENTATION('',(#222),#226);
#222 = LINE('',#223,#224);
#223 = CARTESIAN_POINT('',(0.,0.));
#224 = VECTOR('',#225,1.);
#225 = DIRECTION('',(0.,1.));
#226 = ( GEOMETRIC_REPRESENTATION_CONTEXT(2) 
PARAMETRIC_REPRESENTATION_CONTEXT() REPRESENTATION_CONTEXT('2D SPACE',''
  ) );
#227 = PCURVE('',#144,#228);
#228 = DEFINITIONAL_REPRESENTATION('',(#229),#233);
#229 = LINE('',#230,#231);
#230 = CARTESIAN_POINT('',(6.28318530718,0.));
#231 = VECTOR('',#232,1.);
#232 = DIRECTION('',(0.,1.));
#233 = ( GEOMETRIC_REPRESENTATION_CONTEXT(2) 
PARAMETRIC_REPRESENTATION_CONTEXT() REPRESENTATION_CONTEXT('2D SPACE',''
  ) );
#234 = ORIENTED_EDGE('',*,*,#235,.F.);
#235 = EDGE_CURVE('',#212,#212,#236,.T.);
#236 = SURFACE_CURVE('',#237,(#242,#249),.PCURVE_S1.);
#237 = CIRCLE('',#238,7.899999980674);
#238 = AXIS2_PLACEMENT_3D('',#239,#240,#241);
#239 = CARTESIAN_POINT('',(0.,0.,-3.));
#240 = DIRECTION('',(0.,0.,1.));
#241 = DIRECTION('',(1.,0.,-0.));
#242 = PCURVE('',#144,#243);
#243 = DEFINITIONAL_REPRESENTATION('',(#244),#248);
#244 = LINE('',#245,#246);
#245 = CARTESIAN_POINT('',(0.,4.712388980385));
#246 = VECTOR('',#247,1.);
#247 = DIRECTION('',(1.,0.));
#248 = ( GEOMETRIC_REPRESENTATION_CONTEXT(2) 
PARAMETRIC_REPRESENTATION_CONTEXT() REPRESENTATION_CONTEXT('2D SPACE',''
  ) );
#249 = PCURVE('',#250,#255);
#250 = PLANE('',#251);
#251 = AXIS2_PLACEMENT_3D('',#252,#253,#254);
#252 = CARTESIAN_POINT('',(0.,0.,-3.));
#253 = DIRECTION('',(0.,0.,1.));
#254 = DIRECTION('',(1.,0.,-0.));
#255 = DEFINITIONAL_REPRESENTATION('',(#256),#260);
#256 = CIRCLE('',#257,7.899999980674);
#257 = AXIS2_PLACEMENT_2D('',#258,#259);
#258 = CARTESIAN_POINT('',(0.,0.));
#259 = DIRECTION('',(1.,-0.));
#260 = ( GEOMETRIC_REPRESENTATION_CONTEXT(2) 
PARAMETRIC_REPRESENTATION_CONTEXT() REPRESENTATION_CONTEXT('2D SPACE',''
  ) );
#261 = ORIENTED_EDGE('',*,*,#211,.F.);
#262 = ADVANCED_FACE('',(#263,#266),#250,.F.);
#263 = FACE_BOUND('',#264,.T.);
#264 = EDGE_LOOP('',(#265));
#265 = ORIENTED_EDGE('',*,*,#235,.T.);
#266 = FACE_BOUND('',#267,.T.);
#267 = EDGE_LOOP('',(#268));
#268 = ORIENTED_EDGE('',*,*,#269,.F.);
#269 = EDGE_CURVE('',#270,#270,#272,.T.);
#270 = VERTEX_POINT('',#271);
#271 = CARTESIAN_POINT('',(9.200000013537,0.,-3.));
#272 = SURFACE_CURVE('',#273,(#278,#285),.PCURVE_S1.);
#273 = CIRCLE('',#274,9.200000013537);
#274 = AXIS2_PLACEMENT_3D('',#275,#276,#277);
#275 = CARTESIAN_POINT('',(0.,0.,-3.));
#276 = DIRECTION('',(0.,0.,1.));
#277 = DIRECTION('',(1.,0.,-0.));
#278 = PCURVE('',#250,#279);
#279 = DEFINITIONAL_REPRESENTATION('',(#280),#284);
#280 = CIRCLE('',#281,9.200000013537);
#281 = AXIS2_PLACEMENT_2D('',#282,#283);
#282 = CARTESIAN_POINT('',(0.,0.));
#283 = DIRECTION('',(1.,-0.));
#284 = ( GEOMETRIC_REPRESENTATION_CONTEXT(2) 
PARAMETRIC_REPRESENTATION_CONTEXT() REPRESENTATION_CONTEXT('2D SPACE',''
  ) );
#285 = PCURVE('',#286,#291);
#286 = TOROIDAL_SURFACE('',#287,9.200000013537,0.3);
#287 = AXIS2_PLACEMENT_3D('',#288,#289,#290);
#288 = CARTESIAN_POINT('',(0.,0.,-2.7));
#289 = DIRECTION('',(0.,0.,1.));
#290 = DIRECTION('',(1.,0.,-0.));
#291 = DEFINITIONAL_REPRESENTATION('',(#292),#296);
#292 = LINE('',#293,#294);
#293 = CARTESIAN_POINT('',(0.,4.712388980385));
#294 = VECTOR('',#295,1.);
#295 = DIRECTION('',(1.,0.));
#296 = ( GEOMETRIC_REPRESENTATION_CONTEXT(2) 
PARAMETRIC_REPRESENTATION_CONTEXT() REPRESENTATION_CONTEXT('2D SPACE',''
  ) );
#297 = ADVANCED_FACE('',(#298),#286,.T.);
#298 = FACE_BOUND('',#299,.T.);
#299 = EDGE_LOOP('',(#300,#301,#325,#352));
#300 = ORIENTED_EDGE('',*,*,#269,.T.);
#301 = ORIENTED_EDGE('',*,*,#302,.T.);
#302 = EDGE_CURVE('',#270,#303,#305,.T.);
#303 = VERTEX_POINT('',#304);
#304 = CARTESIAN_POINT('',(9.500000016431,0.,-2.7));
#305 = SEAM_CURVE('',#306,(#311,#318),.PCURVE_S1.);
#306 = CIRCLE('',#307,0.3);
#307 = AXIS2_PLACEMENT_3D('',#308,#309,#310);
#308 = CARTESIAN_POINT('',(9.200000013537,0.,-2.7));
#309 = DIRECTION('',(0.,-1.,0.));
#310 = DIRECTION('',(1.,0.,0.));
#311 = PCURVE('',#286,#312);
#312 = DEFINITIONAL_REPRESENTATION('',(#313),#317);
#313 = LINE('',#314,#315);
#314 = CARTESIAN_POINT('',(0.,0.));
#315 = VECTOR('',#316,1.);
#316 = DIRECTION('',(0.,1.));
#317 = ( GEOMETRIC_REPRESENTATION_CONTEXT(2) 
PARAMETRIC_REPRESENTATION_CONTEXT() REPRESENTATION_CONTEXT('2D SPACE',''
  ) );
#318 = PCURVE('',#286,#319);
#319 = DEFINITIONAL_REPRESENTATION('',(#320),#324);
#320 = LINE('',#321,#322);
#321 = CARTESIAN_POINT('',(6.28318530718,0.));
#322 = VECTOR('',#323,1.);
#323 = DIRECTION('',(0.,1.));
#324 = ( GEOMETRIC_REPRESENTATION_CONTEXT(2) 
PARAMETRIC_REPRESENTATION_CONTEXT() REPRESENTATION_CONTEXT('2D SPACE',''
  ) );
#325 = ORIENTED_EDGE('',*,*,#326,.F.);
#326 = EDGE_CURVE('',#303,#303,#327,.T.);
#327 = SURFACE_CURVE('',#328,(#333,#340),.PCURVE_S1.);
#328 = CIRCLE('',#329,9.500000016431);
#329 = AXIS2_PLACEMENT_3D('',#330,#331,#332);
#330 = CARTESIAN_POINT('',(0.,0.,-2.7));
#331 = DIRECTION('',(0.,0.,1.));
#332 = DIRECTION('',(1.,0.,-0.));
#333 = PCURVE('',#286,#334);
#334 = DEFINITIONAL_REPRESENTATION('',(#335),#339);
#335 = LINE('',#336,#337);
#336 = CARTESIAN_POINT('',(0.,6.28318530718));
#337 = VECTOR('',#338,1.);
#338 = DIRECTION('',(1.,0.));
#339 = ( GEOMETRIC_REPRESENTATION_CONTEXT(2) 
PARAMETRIC_REPRESENTATION_CONTEXT() REPRESENTATION_CONTEXT('2D SPACE',''
  ) );
#340 = PCURVE('',#341,#346);
#341 = CYLINDRICAL_SURFACE('',#342,9.500000019326);
#342 = AXIS2_PLACEMENT_3D('',#343,#344,#345);
#343 = CARTESIAN_POINT('',(0.,0.,0.));
#344 = DIRECTION('',(0.,0.,1.));
#345 = DIRECTION('',(1.,0.,-0.));
#346 = DEFINITIONAL_REPRESENTATION('',(#347),#351);
#347 = LINE('',#348,#349);
#348 = CARTESIAN_POINT('',(0.,-2.7));
#349 = VECTOR('',#350,1.);
#350 = DIRECTION('',(1.,0.));
#351 = ( GEOMETRIC_REPRESENTATION_CONTEXT(2) 
PARAMETRIC_REPRESENTATION_CONTEXT() REPRESENTATION_CONTEXT('2D SPACE',''
  ) );
#352 = ORIENTED_EDGE('',*,*,#302,.F.);
#353 = ADVANCED_FACE('',(#354),#341,.T.);
#354 = FACE_BOUND('',#355,.T.);
#355 = EDGE_LOOP('',(#356,#357,#380,#407));
#356 = ORIENTED_EDGE('',*,*,#326,.T.);
#357 = ORIENTED_EDGE('',*,*,#358,.T.);
#358 = EDGE_CURVE('',#303,#359,#361,.T.);
#359 = VERTEX_POINT('',#360);
#360 = CARTESIAN_POINT('',(9.500000016431,0.,2.7));
#361 = SEAM_CURVE('',#362,(#366,#373),.PCURVE_S1.);
#362 = LINE('',#363,#364);
#363 = CARTESIAN_POINT('',(9.500000019326,0.,0.));
#364 = VECTOR('',#365,1.);
#365 = DIRECTION('',(0.,0.,1.));
#366 = PCURVE('',#341,#367);
#367 = DEFINITIONAL_REPRESENTATION('',(#368),#372);
#368 = LINE('',#369,#370);
#369 = CARTESIAN_POINT('',(0.,0.));
#370 = VECTOR('',#371,1.);
#371 = DIRECTION('',(0.,1.));
#372 = ( GEOMETRIC_REPRESENTATION_CONTEXT(2) 
PARAMETRIC_REPRESENTATION_CONTEXT() REPRESENTATION_CONTEXT('2D SPACE',''
  ) );
#373 = PCURVE('',#341,#374);
#374 = DEFINITIONAL_REPRESENTATION('',(#375),#379);
#375 = LINE('',#376,#377);
#376 = CARTESIAN_POINT('',(6.28318530718,0.));
#377 = VECTOR('',#378,1.);
#378 = DIRECTION('',(0.,1.));
#379 = ( GEOMETRIC_REPRESENTATION_CONTEXT(2) 
PARAMETRIC_REPRESENTATION_CONTEXT() REPRESENTATION_CONTEXT('2D SPACE',''
  ) );
#380 = ORIENTED_EDGE('',*,*,#381,.F.);
#381 = EDGE_CURVE('',#359,#359,#382,.T.);
#382 = SURFACE_CURVE('',#383,(#388,#395),.PCURVE_S1.);
#383 = CIRCLE('',#384,9.500000016431);
#384 = AXIS2_PLACEMENT_3D('',#385,#386,#387);
#385 = CARTESIAN_POINT('',(0.,0.,2.7));
#386 = DIRECTION('',(0.,0.,1.));
#387 = DIRECTION('',(1.,0.,-0.));
#388 = PCURVE('',#341,#389);
#389 = DEFINITIONAL_REPRESENTATION('',(#390),#394);
#390 = LINE('',#391,#392);
#391 = CARTESIAN_POINT('',(0.,2.7));
#392 = VECTOR('',#393,1.);
#393 = DIRECTION('',(1.,0.));
#394 = ( GEOMETRIC_REPRESENTATION_CONTEXT(2) 
PARAMETRIC_REPRESENTATION_CONTEXT() REPRESENTATION_CONTEXT('2D SPACE',''
  ) );
#395 = PCURVE('',#396,#401);
#396 = TOROIDAL_SURFACE('',#397,9.200000013537,0.3);
#397 = AXIS2_PLACEMENT_3D('',#398,#399,#400);
#398 = CARTESIAN_POINT('',(0.,0.,2.7));
#399 = DIRECTION('',(0.,0.,1.));
#400 = DIRECTION('',(1.,0.,-0.));
#401 = DEFINITIONAL_REPRESENTATION('',(#402),#406);
#402 = LINE('',#403,#404);
#403 = CARTESIAN_POINT('',(0.,0.));
#404 = VECTOR('',#405,1.);
#405 = DIRECTION('',(1.,0.));
#406 = ( GEOMETRIC_REPRESENTATION_CONTEXT(2) 
PARAMETRIC_REPRESENTATION_CONTEXT() REPRESENTATION_CONTEXT('2D SPACE',''
  ) );
#407 = ORIENTED_EDGE('',*,*,#358,.F.);
#408 = ADVANCED_FACE('',(#409),#396,.T.);
#409 = FACE_BOUND('',#410,.T.);
#410 = EDGE_LOOP('',(#411,#412,#436,#463));
#411 = ORIENTED_EDGE('',*,*,#381,.T.);
#412 = ORIENTED_EDGE('',*,*,#413,.T.);
#413 = EDGE_CURVE('',#359,#414,#416,.T.);
#414 = VERTEX_POINT('',#415);
#415 = CARTESIAN_POINT('',(9.200000013537,0.,3.));
#416 = SEAM_CURVE('',#417,(#422,#429),.PCURVE_S1.);
#417 = CIRCLE('',#418,0.3);
#418 = AXIS2_PLACEMENT_3D('',#419,#420,#421);
#419 = CARTESIAN_POINT('',(9.200000013537,0.,2.7));
#420 = DIRECTION('',(0.,-1.,0.));
#421 = DIRECTION('',(1.,0.,0.));
#422 = PCURVE('',#396,#423);
#423 = DEFINITIONAL_REPRESENTATION('',(#424),#428);
#424 = LINE('',#425,#426);
#425 = CARTESIAN_POINT('',(0.,0.));
#426 = VECTOR('',#427,1.);
#427 = DIRECTION('',(0.,1.));
#428 = ( GEOMETRIC_REPRESENTATION_CONTEXT(2) 
PARAMETRIC_REPRESENTATION_CONTEXT() REPRESENTATION_CONTEXT('2D SPACE',''
  ) );
#429 = PCURVE('',#396,#430);
#430 = DEFINITIONAL_REPRESENTATION('',(#431),#435);
#431 = LINE('',#432,#433);
#432 = CARTESIAN_POINT('',(6.28318530718,0.));
#433 = VECTOR('',#434,1.);
#434 = DIRECTION('',(0.,1.));
#435 = ( GEOMETRIC_REPRESENTATION_CONTEXT(2) 
PARAMETRIC_REPRESENTATION_CONTEXT() REPRESENTATION_CONTEXT('2D SPACE',''
  ) );
#436 = ORIENTED_EDGE('',*,*,#437,.F.);
#437 = EDGE_CURVE('',#414,#414,#438,.T.);
#438 = SURFACE_CURVE('',#439,(#444,#451),.PCURVE_S1.);
#439 = CIRCLE('',#440,9.200000013537);
#440 = AXIS2_PLACEMENT_3D('',#441,#442,#443);
#441 = CARTESIAN_POINT('',(0.,0.,3.));
#442 = DIRECTION('',(0.,0.,1.));
#443 = DIRECTION('',(1.,0.,-0.));
#444 = PCURVE('',#396,#445);
#445 = DEFINITIONAL_REPRESENTATION('',(#446),#450);
#446 = LINE('',#447,#448);
#447 = CARTESIAN_POINT('',(0.,1.570796326795));
#448 = VECTOR('',#449,1.);
#449 = DIRECTION('',(1.,0.));
#450 = ( GEOMETRIC_REPRESENTATION_CONTEXT(2) 
PARAMETRIC_REPRESENTATION_CONTEXT() REPRESENTATION_CONTEXT('2D SPACE',''
  ) );
#451 = PCURVE('',#452,#457);
#452 = PLANE('',#453);
#453 = AXIS2_PLACEMENT_3D('',#454,#455,#456);
#454 = CARTESIAN_POINT('',(0.,0.,3.));
#455 = DIRECTION('',(0.,0.,1.));
#456 = DIRECTION('',(1.,0.,-0.));
#457 = DEFINITIONAL_REPRESENTATION('',(#458),#462);
#458 = CIRCLE('',#459,9.200000013537);
#459 = AXIS2_PLACEMENT_2D('',#460,#461);
#460 = CARTESIAN_POINT('',(0.,0.));
#461 = DIRECTION('',(1.,-0.));
#462 = ( GEOMETRIC_REPRESENTATION_CONTEXT(2) 
PARAMETRIC_REPRESENTATION_CONTEXT() REPRESENTATION_CONTEXT('2D SPACE',''
  ) );
#463 = ORIENTED_EDGE('',*,*,#413,.F.);
#464 = ADVANCED_FACE('',(#465,#491),#452,.T.);
#465 = FACE_BOUND('',#466,.F.);
#466 = EDGE_LOOP('',(#467));
#467 = ORIENTED_EDGE('',*,*,#468,.T.);
#468 = EDGE_CURVE('',#469,#469,#471,.T.);
#469 = VERTEX_POINT('',#470);
#470 = CARTESIAN_POINT('',(7.899999980674,0.,3.));
#471 = SURFACE_CURVE('',#472,(#477,#484),.PCURVE_S1.);
#472 = CIRCLE('',#473,7.899999980674);
#473 = AXIS2_PLACEMENT_3D('',#474,#475,#476);
#474 = CARTESIAN_POINT('',(0.,0.,3.));
#475 = DIRECTION('',(0.,0.,1.));
#476 = DIRECTION('',(1.,0.,-0.));
#477 = PCURVE('',#452,#478);
#478 = DEFINITIONAL_REPRESENTATION('',(#479),#483);
#479 = CIRCLE('',#480,7.899999980674);
#480 = AXIS2_PLACEMENT_2D('',#481,#482);
#481 = CARTESIAN_POINT('',(0.,0.));
#482 = DIRECTION('',(1.,-0.));
#483 = ( GEOMETRIC_REPRESENTATION_CONTEXT(2) 
PARAMETRIC_REPRESENTATION_CONTEXT() REPRESENTATION_CONTEXT('2D SPACE',''
  ) );
#484 = PCURVE('',#194,#485);
#485 = DEFINITIONAL_REPRESENTATION('',(#486),#490);
#486 = LINE('',#487,#488);
#487 = CARTESIAN_POINT('',(0.,1.570796326795));
#488 = VECTOR('',#489,1.);
#489 = DIRECTION('',(1.,0.));
#490 = ( GEOMETRIC_REPRESENTATION_CONTEXT(2) 
PARAMETRIC_REPRESENTATION_CONTEXT() REPRESENTATION_CONTEXT('2D SPACE',''
  ) );
#491 = FACE_BOUND('',#492,.F.);
#492 = EDGE_LOOP('',(#493));
#493 = ORIENTED_EDGE('',*,*,#437,.F.);
#494 = ADVANCED_FACE('',(#495),#194,.T.);
#495 = FACE_BOUND('',#496,.T.);
#496 = EDGE_LOOP('',(#497,#498,#520,#521));
#497 = ORIENTED_EDGE('',*,*,#468,.T.);
#498 = ORIENTED_EDGE('',*,*,#499,.T.);
#499 = EDGE_CURVE('',#469,#157,#500,.T.);
#500 = SEAM_CURVE('',#501,(#506,#513),.PCURVE_S1.);
#501 = CIRCLE('',#502,0.3);
#502 = AXIS2_PLACEMENT_3D('',#503,#504,#505);
#503 = CARTESIAN_POINT('',(7.899999980674,0.,2.7));
#504 = DIRECTION('',(0.,-1.,0.));
#505 = DIRECTION('',(1.,0.,0.));
#506 = PCURVE('',#194,#507);
#507 = DEFINITIONAL_REPRESENTATION('',(#508),#512);
#508 = LINE('',#509,#510);
#509 = CARTESIAN_POINT('',(0.,0.));
#510 = VECTOR('',#511,1.);
#511 = DIRECTION('',(0.,1.));
#512 = ( GEOMETRIC_REPRESENTATION_CONTEXT(2) 
PARAMETRIC_REPRESENTATION_CONTEXT() REPRESENTATION_CONTEXT('2D SPACE',''
  ) );
#513 = PCURVE('',#194,#514);
#514 = DEFINITIONAL_REPRESENTATION('',(#515),#519);
#515 = LINE('',#516,#517);
#516 = CARTESIAN_POINT('',(6.28318530718,0.));
#517 = VECTOR('',#518,1.);
#518 = DIRECTION('',(0.,1.));
#519 = ( GEOMETRIC_REPRESENTATION_CONTEXT(2) 
PARAMETRIC_REPRESENTATION_CONTEXT() REPRESENTATION_CONTEXT('2D SPACE',''
  ) );
#520 = ORIENTED_EDGE('',*,*,#179,.F.);
#521 = ORIENTED_EDGE('',*,*,#499,.F.);
#522 = ( GEOMETRIC_REPRESENTATION_CONTEXT(3) 
GLOBAL_UNCERTAINTY_ASSIGNED_CONTEXT((#526)) GLOBAL_UNIT_ASSIGNED_CONTEXT
((#523,#524,#525)) REPRESENTATION_CONTEXT('Context #1',
  '3D Context with UNIT and UNCERTAINTY') );
#523 = ( LENGTH_UNIT() NAMED_UNIT(*) SI_UNIT(.MILLI.,.METRE.) );
#524 = ( NAMED_UNIT(*) PLANE_ANGLE_UNIT() SI_UNIT($,.RADIAN.) );
#525 = ( NAMED_UNIT(*) SI_UNIT($,.STERADIAN.) SOLID_ANGLE_UNIT() );
#526 = UNCERTAINTY_MEASURE_WITH_UNIT(LENGTH_MEASURE(1.E-07),#523,
  'distance_accuracy_value','confusion accuracy');
#527 = CONTEXT_DEPENDENT_SHAPE_REPRESENTATION(#528,#530);
#528 = ( REPRESENTATION_RELATIONSHIP('','',#115,#32) 
REPRESENTATION_RELATIONSHIP_WITH_TRANSFORMATION(#529) 
SHAPE_REPRESENTATION_RELATIONSHIP() );
#529 = ITEM_DEFINED_TRANSFORMATION('','',#11,#33);
#530 = PRODUCT_DEFINITION_SHAPE('Placement','Placement of an item',#531
  );
#531 = NEXT_ASSEMBLY_USAGE_OCCURRENCE('1','OuterRace','',#27,#110,$);
#532 = PRODUCT_RELATED_PRODUCT_CATEGORY('part',$,(#112));
#533 = SHAPE_DEFINITION_REPRESENTATION(#534,#540);
#534 = PRODUCT_DEFINITION_SHAPE('','',#535);
#535 = PRODUCT_DEFINITION('design','',#536,#539);
#536 = PRODUCT_DEFINITION_FORMATION('','',#537);
#537 = PRODUCT('InnerRace','InnerRace','',(#538));
#538 = PRODUCT_CONTEXT('',#2,'mechanical');
#539 = PRODUCT_DEFINITION_CONTEXT('part definition',#2,'design');
#540 = ADVANCED_BREP_SHAPE_REPRESENTATION('',(#11,#541),#947);
#541 = MANIFOLD_SOLID_BREP('',#542);
#542 = CLOSED_SHELL('',(#543,#631,#687,#722,#778,#833,#889,#919));
#543 = ADVANCED_FACE('',(#544),#557,.F.);
#544 = FACE_BOUND('',#545,.F.);
#545 = EDGE_LOOP('',(#546,#580,#603,#630));
#546 = ORIENTED_EDGE('',*,*,#547,.T.);
#547 = EDGE_CURVE('',#548,#548,#550,.T.);
#548 = VERTEX_POINT('',#549);
#549 = CARTESIAN_POINT('',(3.,0.,-2.7));
#550 = SURFACE_CURVE('',#551,(#556,#568),.PCURVE_S1.);
#551 = CIRCLE('',#552,3.);
#552 = AXIS2_PLACEMENT_3D('',#553,#554,#555);
#553 = CARTESIAN_POINT('',(0.,0.,-2.7));
#554 = DIRECTION('',(0.,0.,1.));
#555 = DIRECTION('',(1.,0.,-0.));
#556 = PCURVE('',#557,#562);
#557 = CYLINDRICAL_SURFACE('',#558,3.000000038905);
#558 = AXIS2_PLACEMENT_3D('',#559,#560,#561);
#559 = CARTESIAN_POINT('',(0.,0.,0.));
#560 = DIRECTION('',(0.,0.,1.));
#561 = DIRECTION('',(1.,0.,-0.));
#562 = DEFINITIONAL_REPRESENTATION('',(#563),#567);
#563 = LINE('',#564,#565);
#564 = CARTESIAN_POINT('',(0.,-2.7));
#565 = VECTOR('',#566,1.);
#566 = DIRECTION('',(1.,0.));
#567 = ( GEOMETRIC_REPRESENTATION_CONTEXT(2) 
PARAMETRIC_REPRESENTATION_CONTEXT() REPRESENTATION_CONTEXT('2D SPACE',''
  ) );
#568 = PCURVE('',#569,#574);
#569 = TOROIDAL_SURFACE('',#570,3.299999961095,0.3);
#570 = AXIS2_PLACEMENT_3D('',#571,#572,#573);
#571 = CARTESIAN_POINT('',(0.,0.,-2.7));
#572 = DIRECTION('',(-0.,-0.,-1.));
#573 = DIRECTION('',(1.,0.,-0.));
#574 = DEFINITIONAL_REPRESENTATION('',(#575),#579);
#575 = LINE('',#576,#577);
#576 = CARTESIAN_POINT('',(-0.,3.14159265359));
#577 = VECTOR('',#578,1.);
#578 = DIRECTION('',(-1.,0.));
#579 = ( GEOMETRIC_REPRESENTATION_CONTEXT(2) 
PARAMETRIC_REPRESENTATION_CONTEXT() REPRESENTATION_CONTEXT('2D SPACE',''
  ) );
#580 = ORIENTED_EDGE('',*,*,#581,.T.);
#581 = EDGE_CURVE('',#548,#582,#584,.T.);
#582 = VERTEX_POINT('',#583);
#583 = CARTESIAN_POINT('',(3.,0.,2.7));
#584 = SEAM_CURVE('',#585,(#589,#596),.PCURVE_S1.);
#585 = LINE('',#586,#587);
#586 = CARTESIAN_POINT('',(3.000000038905,0.,0.));
#587 = VECTOR('',#588,1.);
#588 = DIRECTION('',(0.,0.,1.));
#589 = PCURVE('',#557,#590);
#590 = DEFINITIONAL_REPRESENTATION('',(#591),#595);
#591 = LINE('',#592,#593);
#592 = CARTESIAN_POINT('',(0.,0.));
#593 = VECTOR('',#594,1.);
#594 = DIRECTION('',(0.,1.));
#595 = ( GEOMETRIC_REPRESENTATION_CONTEXT(2) 
PARAMETRIC_REPRESENTATION_CONTEXT() REPRESENTATION_CONTEXT('2D SPACE',''
  ) );
#596 = PCURVE('',#557,#597);
#597 = DEFINITIONAL_REPRESENTATION('',(#598),#602);
#598 = LINE('',#599,#600);
#599 = CARTESIAN_POINT('',(6.28318530718,0.));
#600 = VECTOR('',#601,1.);
#601 = DIRECTION('',(0.,1.));
#602 = ( GEOMETRIC_REPRESENTATION_CONTEXT(2) 
PARAMETRIC_REPRESENTATION_CONTEXT() REPRESENTATION_CONTEXT('2D SPACE',''
  ) );
#603 = ORIENTED_EDGE('',*,*,#604,.F.);
#604 = EDGE_CURVE('',#582,#582,#605,.T.);
#605 = SURFACE_CURVE('',#606,(#611,#618),.PCURVE_S1.);
#606 = CIRCLE('',#607,3.);
#607 = AXIS2_PLACEMENT_3D('',#608,#609,#610);
#608 = CARTESIAN_POINT('',(0.,0.,2.7));
#609 = DIRECTION('',(0.,0.,1.));
#610 = DIRECTION('',(1.,0.,-0.));
#611 = PCURVE('',#557,#612);
#612 = DEFINITIONAL_REPRESENTATION('',(#613),#617);
#613 = LINE('',#614,#615);
#614 = CARTESIAN_POINT('',(0.,2.7));
#615 = VECTOR('',#616,1.);
#616 = DIRECTION('',(1.,0.));
#617 = ( GEOMETRIC_REPRESENTATION_CONTEXT(2) 
PARAMETRIC_REPRESENTATION_CONTEXT() REPRESENTATION_CONTEXT('2D SPACE',''
  ) );
#618 = PCURVE('',#619,#624);
#619 = TOROIDAL_SURFACE('',#620,3.299999961095,0.3);
#620 = AXIS2_PLACEMENT_3D('',#621,#622,#623);
#621 = CARTESIAN_POINT('',(0.,0.,2.7));
#622 = DIRECTION('',(-0.,-0.,-1.));
#623 = DIRECTION('',(1.,0.,-0.));
#624 = DEFINITIONAL_REPRESENTATION('',(#625),#629);
#625 = LINE('',#626,#627);
#626 = CARTESIAN_POINT('',(-0.,3.14159265359));
#627 = VECTOR('',#628,1.);
#628 = DIRECTION('',(-1.,0.));
#629 = ( GEOMETRIC_REPRESENTATION_CONTEXT(2) 
PARAMETRIC_REPRESENTATION_CONTEXT() REPRESENTATION_CONTEXT('2D SPACE',''
  ) );
#630 = ORIENTED_EDGE('',*,*,#581,.F.);
#631 = ADVANCED_FACE('',(#632),#569,.T.);
#632 = FACE_BOUND('',#633,.F.);
#633 = EDGE_LOOP('',(#634,#663,#685,#686));
#634 = ORIENTED_EDGE('',*,*,#635,.T.);
#635 = EDGE_CURVE('',#636,#636,#638,.T.);
#636 = VERTEX_POINT('',#637);
#637 = CARTESIAN_POINT('',(3.299999961095,0.,-3.));
#638 = SURFACE_CURVE('',#639,(#644,#651),.PCURVE_S1.);
#639 = CIRCLE('',#640,3.299999961095);
#640 = AXIS2_PLACEMENT_3D('',#641,#642,#643);
#641 = CARTESIAN_POINT('',(0.,0.,-3.));
#642 = DIRECTION('',(0.,0.,1.));
#643 = DIRECTION('',(1.,0.,-0.));
#644 = PCURVE('',#569,#645);
#645 = DEFINITIONAL_REPRESENTATION('',(#646),#650);
#646 = LINE('',#647,#648);
#647 = CARTESIAN_POINT('',(-0.,1.570796326795));
#648 = VECTOR('',#649,1.);
#649 = DIRECTION('',(-1.,0.));
#650 = ( GEOMETRIC_REPRESENTATION_CONTEXT(2) 
PARAMETRIC_REPRESENTATION_CONTEXT() REPRESENTATION_CONTEXT('2D SPACE',''
  ) );
#651 = PCURVE('',#652,#657);
#652 = PLANE('',#653);
#653 = AXIS2_PLACEMENT_3D('',#654,#655,#656);
#654 = CARTESIAN_POINT('',(0.,0.,-3.));
#655 = DIRECTION('',(0.,0.,1.));
#656 = DIRECTION('',(1.,0.,-0.));
#657 = DEFINITIONAL_REPRESENTATION('',(#658),#662);
#658 = CIRCLE('',#659,3.299999961095);
#659 = AXIS2_PLACEMENT_2D('',#660,#661);
#660 = CARTESIAN_POINT('',(0.,0.));
#661 = DIRECTION('',(1.,-0.));
#662 = ( GEOMETRIC_REPRESENTATION_CONTEXT(2) 
PARAMETRIC_REPRESENTATION_CONTEXT() REPRESENTATION_CONTEXT('2D SPACE',''
  ) );
#663 = ORIENTED_EDGE('',*,*,#664,.T.);
#664 = EDGE_CURVE('',#636,#548,#665,.T.);
#665 = SEAM_CURVE('',#666,(#671,#678),.PCURVE_S1.);
#666 = CIRCLE('',#667,0.3);
#667 = AXIS2_PLACEMENT_3D('',#668,#669,#670);
#668 = CARTESIAN_POINT('',(3.299999961095,0.,-2.7));
#669 = DIRECTION('',(0.,1.,-0.));
#670 = DIRECTION('',(-1.,0.,0.));
#671 = PCURVE('',#569,#672);
#672 = DEFINITIONAL_REPRESENTATION('',(#673),#677);
#673 = LINE('',#674,#675);
#674 = CARTESIAN_POINT('',(-0.,-3.14159265359));
#675 = VECTOR('',#676,1.);
#676 = DIRECTION('',(-0.,1.));
#677 = ( GEOMETRIC_REPRESENTATION_CONTEXT(2) 
PARAMETRIC_REPRESENTATION_CONTEXT() REPRESENTATION_CONTEXT('2D SPACE',''
  ) );
#678 = PCURVE('',#569,#679);
#679 = DEFINITIONAL_REPRESENTATION('',(#680),#684);
#680 = LINE('',#681,#682);
#681 = CARTESIAN_POINT('',(-6.28318530718,-3.14159265359));
#682 = VECTOR('',#683,1.);
#683 = DIRECTION('',(-0.,1.));
#684 = ( GEOMETRIC_REPRESENTATION_CONTEXT(2) 
PARAMETRIC_REPRESENTATION_CONTEXT() REPRESENTATION_CONTEXT('2D SPACE',''
  ) );
#685 = ORIENTED_EDGE('',*,*,#547,.F.);
#686 = ORIENTED_EDGE('',*,*,#664,.F.);
#687 = ADVANCED_FACE('',(#688,#691),#652,.F.);
#688 = FACE_BOUND('',#689,.T.);
#689 = EDGE_LOOP('',(#690));
#690 = ORIENTED_EDGE('',*,*,#635,.T.);
#691 = FACE_BOUND('',#692,.T.);
#692 = EDGE_LOOP('',(#693));
#693 = ORIENTED_EDGE('',*,*,#694,.F.);
#694 = EDGE_CURVE('',#695,#695,#697,.T.);
#695 = VERTEX_POINT('',#696);
#696 = CARTESIAN_POINT('',(5.250000026267,0.,-3.));
#697 = SURFACE_CURVE('',#698,(#703,#710),.PCURVE_S1.);
#698 = CIRCLE('',#699,5.250000026267);
#699 = AXIS2_PLACEMENT_3D('',#700,#701,#702);
#700 = CARTESIAN_POINT('',(0.,0.,-3.));
#701 = DIRECTION('',(0.,0.,1.));
#702 = DIRECTION('',(1.,0.,-0.));
#703 = PCURVE('',#652,#704);
#704 = DEFINITIONAL_REPRESENTATION('',(#705),#709);
#705 = CIRCLE('',#706,5.250000026267);
#706 = AXIS2_PLACEMENT_2D('',#707,#708);
#707 = CARTESIAN_POINT('',(0.,0.));
#708 = DIRECTION('',(1.,-0.));
#709 = ( GEOMETRIC_REPRESENTATION_CONTEXT(2) 
PARAMETRIC_REPRESENTATION_CONTEXT() REPRESENTATION_CONTEXT('2D SPACE',''
  ) );
#710 = PCURVE('',#711,#716);
#711 = TOROIDAL_SURFACE('',#712,5.250000026267,0.3);
#712 = AXIS2_PLACEMENT_3D('',#713,#714,#715);
#713 = CARTESIAN_POINT('',(0.,0.,-2.7));
#714 = DIRECTION('',(-0.,-0.,-1.));
#715 = DIRECTION('',(1.,0.,-0.));
#716 = DEFINITIONAL_REPRESENTATION('',(#717),#721);
#717 = LINE('',#718,#719);
#718 = CARTESIAN_POINT('',(-0.,1.570796326795));
#719 = VECTOR('',#720,1.);
#720 = DIRECTION('',(-1.,0.));
#721 = ( GEOMETRIC_REPRESENTATION_CONTEXT(2) 
PARAMETRIC_REPRESENTATION_CONTEXT() REPRESENTATION_CONTEXT('2D SPACE',''
  ) );
#722 = ADVANCED_FACE('',(#723),#711,.T.);
#723 = FACE_BOUND('',#724,.F.);
#724 = EDGE_LOOP('',(#725,#754,#776,#777));
#725 = ORIENTED_EDGE('',*,*,#726,.T.);
#726 = EDGE_CURVE('',#727,#727,#729,.T.);
#727 = VERTEX_POINT('',#728);
#728 = CARTESIAN_POINT('',(5.550000032586,0.,-2.7));
#729 = SURFACE_CURVE('',#730,(#735,#742),.PCURVE_S1.);
#730 = CIRCLE('',#731,5.550000032586);
#731 = AXIS2_PLACEMENT_3D('',#732,#733,#734);
#732 = CARTESIAN_POINT('',(0.,0.,-2.7));
#733 = DIRECTION('',(0.,0.,1.));
#734 = DIRECTION('',(1.,0.,-0.));
#735 = PCURVE('',#711,#736);
#736 = DEFINITIONAL_REPRESENTATION('',(#737),#741);
#737 = LINE('',#738,#739);
#738 = CARTESIAN_POINT('',(-0.,0.));
#739 = VECTOR('',#740,1.);
#740 = DIRECTION('',(-1.,0.));
#741 = ( GEOMETRIC_REPRESENTATION_CONTEXT(2) 
PARAMETRIC_REPRESENTATION_CONTEXT() REPRESENTATION_CONTEXT('2D SPACE',''
  ) );
#742 = PCURVE('',#743,#748);
#743 = CYLINDRICAL_SURFACE('',#744,5.550000038905);
#744 = AXIS2_PLACEMENT_3D('',#745,#746,#747);
#745 = CARTESIAN_POINT('',(0.,0.,0.));
#746 = DIRECTION('',(0.,0.,1.));
#747 = DIRECTION('',(1.,0.,-0.));
#748 = DEFINITIONAL_REPRESENTATION('',(#749),#753);
#749 = LINE('',#750,#751);
#750 = CARTESIAN_POINT('',(0.,-2.7));
#751 = VECTOR('',#752,1.);
#752 = DIRECTION('',(1.,0.));
#753 = ( GEOMETRIC_REPRESENTATION_CONTEXT(2) 
PARAMETRIC_REPRESENTATION_CONTEXT() REPRESENTATION_CONTEXT('2D SPACE',''
  ) );
#754 = ORIENTED_EDGE('',*,*,#755,.T.);
#755 = EDGE_CURVE('',#727,#695,#756,.T.);
#756 = SEAM_CURVE('',#757,(#762,#769),.PCURVE_S1.);
#757 = CIRCLE('',#758,0.3);
#758 = AXIS2_PLACEMENT_3D('',#759,#760,#761);
#759 = CARTESIAN_POINT('',(5.250000026267,0.,-2.7));
#760 = DIRECTION('',(0.,1.,-0.));
#761 = DIRECTION('',(-1.,0.,0.));
#762 = PCURVE('',#711,#763);
#763 = DEFINITIONAL_REPRESENTATION('',(#764),#768);
#764 = LINE('',#765,#766);
#765 = CARTESIAN_POINT('',(-0.,-3.14159265359));
#766 = VECTOR('',#767,1.);
#767 = DIRECTION('',(-0.,1.));
#768 = ( GEOMETRIC_REPRESENTATION_CONTEXT(2) 
PARAMETRIC_REPRESENTATION_CONTEXT() REPRESENTATION_CONTEXT('2D SPACE',''
  ) );
#769 = PCURVE('',#711,#770);
#770 = DEFINITIONAL_REPRESENTATION('',(#771),#775);
#771 = LINE('',#772,#773);
#772 = CARTESIAN_POINT('',(-6.28318530718,-3.14159265359));
#773 = VECTOR('',#774,1.);
#774 = DIRECTION('',(-0.,1.));
#775 = ( GEOMETRIC_REPRESENTATION_CONTEXT(2) 
PARAMETRIC_REPRESENTATION_CONTEXT() REPRESENTATION_CONTEXT('2D SPACE',''
  ) );
#776 = ORIENTED_EDGE('',*,*,#694,.F.);
#777 = ORIENTED_EDGE('',*,*,#755,.F.);
#778 = ADVANCED_FACE('',(#779),#743,.T.);
#779 = FACE_BOUND('',#780,.T.);
#780 = EDGE_LOOP('',(#781,#782,#805,#832));
#781 = ORIENTED_EDGE('',*,*,#726,.T.);
#782 = ORIENTED_EDGE('',*,*,#783,.T.);
#783 = EDGE_CURVE('',#727,#784,#786,.T.);
#784 = VERTEX_POINT('',#785);
#785 = CARTESIAN_POINT('',(5.550000032586,0.,2.7));
#786 = SEAM_CURVE('',#787,(#791,#798),.PCURVE_S1.);
#787 = LINE('',#788,#789);
#788 = CARTESIAN_POINT('',(5.550000038905,0.,0.));
#789 = VECTOR('',#790,1.);
#790 = DIRECTION('',(0.,0.,1.));
#791 = PCURVE('',#743,#792);
#792 = DEFINITIONAL_REPRESENTATION('',(#793),#797);
#793 = LINE('',#794,#795);
#794 = CARTESIAN_POINT('',(0.,0.));
#795 = VECTOR('',#796,1.);
#796 = DIRECTION('',(0.,1.));
#797 = ( GEOMETRIC_REPRESENTATION_CONTEXT(2) 
PARAMETRIC_REPRESENTATION_CONTEXT() REPRESENTATION_CONTEXT('2D SPACE',''
  ) );
#798 = PCURVE('',#743,#799);
#799 = DEFINITIONAL_REPRESENTATION('',(#800),#804);
#800 = LINE('',#801,#802);
#801 = CARTESIAN_POINT('',(6.28318530718,0.));
#802 = VECTOR('',#803,1.);
#803 = DIRECTION('',(0.,1.));
#804 = ( GEOMETRIC_REPRESENTATION_CONTEXT(2) 
PARAMETRIC_REPRESENTATION_CONTEXT() REPRESENTATION_CONTEXT('2D SPACE',''
  ) );
#805 = ORIENTED_EDGE('',*,*,#806,.F.);
#806 = EDGE_CURVE('',#784,#784,#807,.T.);
#807 = SURFACE_CURVE('',#808,(#813,#820),.PCURVE_S1.);
#808 = CIRCLE('',#809,5.550000032586);
#809 = AXIS2_PLACEMENT_3D('',#810,#811,#812);
#810 = CARTESIAN_POINT('',(0.,0.,2.7));
#811 = DIRECTION('',(0.,0.,1.));
#812 = DIRECTION('',(1.,0.,-0.));
#813 = PCURVE('',#743,#814);
#814 = DEFINITIONAL_REPRESENTATION('',(#815),#819);
#815 = LINE('',#816,#817);
#816 = CARTESIAN_POINT('',(0.,2.7));
#817 = VECTOR('',#818,1.);
#818 = DIRECTION('',(1.,0.));
#819 = ( GEOMETRIC_REPRESENTATION_CONTEXT(2) 
PARAMETRIC_REPRESENTATION_CONTEXT() REPRESENTATION_CONTEXT('2D SPACE',''
  ) );
#820 = PCURVE('',#821,#826);
#821 = TOROIDAL_SURFACE('',#822,5.250000026267,0.3);
#822 = AXIS2_PLACEMENT_3D('',#823,#824,#825);
#823 = CARTESIAN_POINT('',(0.,0.,2.7));
#824 = DIRECTION('',(-0.,-0.,-1.));
#825 = DIRECTION('',(1.,0.,-0.));
#826 = DEFINITIONAL_REPRESENTATION('',(#827),#831);
#827 = LINE('',#828,#829);
#828 = CARTESIAN_POINT('',(-0.,6.28318530718));
#829 = VECTOR('',#830,1.);
#830 = DIRECTION('',(-1.,0.));
#831 = ( GEOMETRIC_REPRESENTATION_CONTEXT(2) 
PARAMETRIC_REPRESENTATION_CONTEXT() REPRESENTATION_CONTEXT('2D SPACE',''
  ) );
#832 = ORIENTED_EDGE('',*,*,#783,.F.);
#833 = ADVANCED_FACE('',(#834),#821,.T.);
#834 = FACE_BOUND('',#835,.F.);
#835 = EDGE_LOOP('',(#836,#865,#887,#888));
#836 = ORIENTED_EDGE('',*,*,#837,.T.);
#837 = EDGE_CURVE('',#838,#838,#840,.T.);
#838 = VERTEX_POINT('',#839);
#839 = CARTESIAN_POINT('',(5.250000026267,0.,3.));
#840 = SURFACE_CURVE('',#841,(#846,#853),.PCURVE_S1.);
#841 = CIRCLE('',#842,5.250000026267);
#842 = AXIS2_PLACEMENT_3D('',#843,#844,#845);
#843 = CARTESIAN_POINT('',(0.,0.,3.));
#844 = DIRECTION('',(0.,0.,1.));
#845 = DIRECTION('',(1.,0.,-0.));
#846 = PCURVE('',#821,#847);
#847 = DEFINITIONAL_REPRESENTATION('',(#848),#852);
#848 = LINE('',#849,#850);
#849 = CARTESIAN_POINT('',(-0.,4.712388980385));
#850 = VECTOR('',#851,1.);
#851 = DIRECTION('',(-1.,0.));
#852 = ( GEOMETRIC_REPRESENTATION_CONTEXT(2) 
PARAMETRIC_REPRESENTATION_CONTEXT() REPRESENTATION_CONTEXT('2D SPACE',''
  ) );
#853 = PCURVE('',#854,#859);
#854 = PLANE('',#855);
#855 = AXIS2_PLACEMENT_3D('',#856,#857,#858);
#856 = CARTESIAN_POINT('',(0.,0.,3.));
#857 = DIRECTION('',(0.,0.,1.));
#858 = DIRECTION('',(1.,0.,-0.));
#859 = DEFINITIONAL_REPRESENTATION('',(#860),#864);
#860 = CIRCLE('',#861,5.250000026267);
#861 = AXIS2_PLACEMENT_2D('',#862,#863);
#862 = CARTESIAN_POINT('',(0.,0.));
#863 = DIRECTION('',(1.,-0.));
#864 = ( GEOMETRIC_REPRESENTATION_CONTEXT(2) 
PARAMETRIC_REPRESENTATION_CONTEXT() REPRESENTATION_CONTEXT('2D SPACE',''
  ) );
#865 = ORIENTED_EDGE('',*,*,#866,.T.);
#866 = EDGE_CURVE('',#838,#784,#867,.T.);
#867 = SEAM_CURVE('',#868,(#873,#880),.PCURVE_S1.);
#868 = CIRCLE('',#869,0.3);
#869 = AXIS2_PLACEMENT_3D('',#870,#871,#872);
#870 = CARTESIAN_POINT('',(5.250000026267,0.,2.7));
#871 = DIRECTION('',(0.,1.,-0.));
#872 = DIRECTION('',(-1.,0.,0.));
#873 = PCURVE('',#821,#874);
#874 = DEFINITIONAL_REPRESENTATION('',(#875),#879);
#875 = LINE('',#876,#877);
#876 = CARTESIAN_POINT('',(-0.,3.14159265359));
#877 = VECTOR('',#878,1.);
#878 = DIRECTION('',(-0.,1.));
#879 = ( GEOMETRIC_REPRESENTATION_CONTEXT(2) 
PARAMETRIC_REPRESENTATION_CONTEXT() REPRESENTATION_CONTEXT('2D SPACE',''
  ) );
#880 = PCURVE('',#821,#881);
#881 = DEFINITIONAL_REPRESENTATION('',(#882),#886);
#882 = LINE('',#883,#884);
#883 = CARTESIAN_POINT('',(-6.28318530718,3.14159265359));
#884 = VECTOR('',#885,1.);
#885 = DIRECTION('',(-0.,1.));
#886 = ( GEOMETRIC_REPRESENTATION_CONTEXT(2) 
PARAMETRIC_REPRESENTATION_CONTEXT() REPRESENTATION_CONTEXT('2D SPACE',''
  ) );
#887 = ORIENTED_EDGE('',*,*,#806,.F.);
#888 = ORIENTED_EDGE('',*,*,#866,.F.);
#889 = ADVANCED_FACE('',(#890,#916),#854,.T.);
#890 = FACE_BOUND('',#891,.F.);
#891 = EDGE_LOOP('',(#892));
#892 = ORIENTED_EDGE('',*,*,#893,.T.);
#893 = EDGE_CURVE('',#894,#894,#896,.T.);
#894 = VERTEX_POINT('',#895);
#895 = CARTESIAN_POINT('',(3.299999961095,0.,3.));
#896 = SURFACE_CURVE('',#897,(#902,#909),.PCURVE_S1.);
#897 = CIRCLE('',#898,3.299999961095);
#898 = AXIS2_PLACEMENT_3D('',#899,#900,#901);
#899 = CARTESIAN_POINT('',(0.,0.,3.));
#900 = DIRECTION('',(0.,0.,1.));
#901 = DIRECTION('',(1.,0.,-0.));
#902 = PCURVE('',#854,#903);
#903 = DEFINITIONAL_REPRESENTATION('',(#904),#908);
#904 = CIRCLE('',#905,3.299999961095);
#905 = AXIS2_PLACEMENT_2D('',#906,#907);
#906 = CARTESIAN_POINT('',(0.,0.));
#907 = DIRECTION('',(1.,-0.));
#908 = ( GEOMETRIC_REPRESENTATION_CONTEXT(2) 
PARAMETRIC_REPRESENTATION_CONTEXT() REPRESENTATION_CONTEXT('2D SPACE',''
  ) );
#909 = PCURVE('',#619,#910);
#910 = DEFINITIONAL_REPRESENTATION('',(#911),#915);
#911 = LINE('',#912,#913);
#912 = CARTESIAN_POINT('',(-0.,4.712388980385));
#913 = VECTOR('',#914,1.);
#914 = DIRECTION('',(-1.,0.));
#915 = ( GEOMETRIC_REPRESENTATION_CONTEXT(2) 
PARAMETRIC_REPRESENTATION_CONTEXT() REPRESENTATION_CONTEXT('2D SPACE',''
  ) );
#916 = FACE_BOUND('',#917,.F.);
#917 = EDGE_LOOP('',(#918));
#918 = ORIENTED_EDGE('',*,*,#837,.F.);
#919 = ADVANCED_FACE('',(#920),#619,.T.);
#920 = FACE_BOUND('',#921,.F.);
#921 = EDGE_LOOP('',(#922,#923,#945,#946));
#922 = ORIENTED_EDGE('',*,*,#604,.T.);
#923 = ORIENTED_EDGE('',*,*,#924,.T.);
#924 = EDGE_CURVE('',#582,#894,#925,.T.);
#925 = SEAM_CURVE('',#926,(#931,#938),.PCURVE_S1.);
#926 = CIRCLE('',#927,0.3);
#927 = AXIS2_PLACEMENT_3D('',#928,#929,#930);
#928 = CARTESIAN_POINT('',(3.299999961095,0.,2.7));
#929 = DIRECTION('',(0.,1.,-0.));
#930 = DIRECTION('',(-1.,0.,0.));
#931 = PCURVE('',#619,#932);
#932 = DEFINITIONAL_REPRESENTATION('',(#933),#937);
#933 = LINE('',#934,#935);
#934 = CARTESIAN_POINT('',(-0.,3.14159265359));
#935 = VECTOR('',#936,1.);
#936 = DIRECTION('',(-0.,1.));
#937 = ( GEOMETRIC_REPRESENTATION_CONTEXT(2) 
PARAMETRIC_REPRESENTATION_CONTEXT() REPRESENTATION_CONTEXT('2D SPACE',''
  ) );
#938 = PCURVE('',#619,#939);
#939 = DEFINITIONAL_REPRESENTATION('',(#940),#944);
#940 = LINE('',#941,#942);
#941 = CARTESIAN_POINT('',(-6.28318530718,3.14159265359));
#942 = VECTOR('',#943,1.);
#943 = DIRECTION('',(-0.,1.));
#944 = ( GEOMETRIC_REPRESENTATION_CONTEXT(2) 
PARAMETRIC_REPRESENTATION_CONTEXT() REPRESENTATION_CONTEXT('2D SPACE',''
  ) );
#945 = ORIENTED_EDGE('',*,*,#893,.F.);
#946 = ORIENTED_EDGE('',*,*,#924,.F.);
#947 = ( GEOMETRIC_REPRESENTATION_CONTEXT(3) 
GLOBAL_UNCERTAINTY_ASSIGNED_CONTEXT((#951)) GLOBAL_UNIT_ASSIGNED_CONTEXT
((#948,#949,#950)) REPRESENTATION_CONTEXT('Context #1',
  '3D Context with UNIT and UNCERTAINTY') );
#948 = ( LENGTH_UNIT() NAMED_UNIT(*) SI_UNIT(.MILLI.,.METRE.) );
#949 = ( NAMED_UNIT(*) PLANE_ANGLE_UNIT() SI_UNIT($,.RADIAN.) );
#950 = ( NAMED_UNIT(*) SI_UNIT($,.STERADIAN.) SOLID_ANGLE_UNIT() );
#951 = UNCERTAINTY_MEASURE_WITH_UNIT(LENGTH_MEASURE(1.E-07),#948,
  'distance_accuracy_value','confusion accuracy');
#952 = CONTEXT_DEPENDENT_SHAPE_REPRESENTATION(#953,#955);
#953 = ( REPRESENTATION_RELATIONSHIP('','',#540,#32) 
REPRESENTATION_RELATIONSHIP_WITH_TRANSFORMATION(#954) 
SHAPE_REPRESENTATION_RELATIONSHIP() );
#954 = ITEM_DEFINED_TRANSFORMATION('','',#11,#37);
#955 = PRODUCT_DEFINITION_SHAPE('Placement','Placement of an item',#956
  );
#956 = NEXT_ASSEMBLY_USAGE_OCCURRENCE('2','InnerRace','',#27,#535,$);
#957 = PRODUCT_RELATED_PRODUCT_CATEGORY('part',$,(#537));
#958 = SHAPE_DEFINITION_REPRESENTATION(#959,#965);
#959 = PRODUCT_DEFINITION_SHAPE('','',#960);
#960 = PRODUCT_DEFINITION('design','',#961,#964);
#961 = PRODUCT_DEFINITION_FORMATION('','',#962);
#962 = PRODUCT('Roller','Roller','',(#963));
#963 = PRODUCT_CONTEXT('',#2,'mechanical');
#964 = PRODUCT_DEFINITION_CONTEXT('part definition',#2,'design');
#965 = ADVANCED_BREP_SHAPE_REPRESENTATION('',(#11,#966),#978);
#966 = MANIFOLD_SOLID_BREP('',#967);
#967 = CLOSED_SHELL('',(#968));
#968 = ADVANCED_FACE('',(#969),#973,.T.);
#969 = FACE_BOUND('',#970,.T.);
#970 = VERTEX_LOOP('',#971);
#971 = VERTEX_POINT('',#972);
#972 = CARTESIAN_POINT('',(7.845393557038E-17,-1.921567221536E-32,
    -1.28125));
#973 = SPHERICAL_SURFACE('',#974,1.28125);
#974 = AXIS2_PLACEMENT_3D('',#975,#976,#977);
#975 = CARTESIAN_POINT('',(0.,0.,0.));
#976 = DIRECTION('',(0.,0.,1.));
#977 = DIRECTION('',(1.,0.,-0.));
#978 = ( GEOMETRIC_REPRESENTATION_CONTEXT(3) 
GLOBAL_UNCERTAINTY_ASSIGNED_CONTEXT((#982)) GLOBAL_UNIT_ASSIGNED_CONTEXT
((#979,#980,#981)) REPRESENTATION_CONTEXT('Context #1',
  '3D Context with UNIT and UNCERTAINTY') );
#979 = ( LENGTH_UNIT() NAMED_UNIT(*) SI_UNIT(.MILLI.,.METRE.) );
#980 = ( NAMED_UNIT(*) PLANE_ANGLE_UNIT() SI_UNIT($,.RADIAN.) );
#981 = ( NAMED_UNIT(*) SI_UNIT($,.STERADIAN.) SOLID_ANGLE_UNIT() );
#982 = UNCERTAINTY_MEASURE_WITH_UNIT(LENGTH_MEASURE(1.E-07),#979,
  'distance_accuracy_value','confusion accuracy');
#983 = CONTEXT_DEPENDENT_SHAPE_REPRESENTATION(#984,#986);
#984 = ( REPRESENTATION_RELATIONSHIP('','',#965,#32) 
REPRESENTATION_RELATIONSHIP_WITH_TRANSFORMATION(#985) 
SHAPE_REPRESENTATION_RELATIONSHIP() );
#985 = ITEM_DEFINED_TRANSFORMATION('','',#11,#41);
#986 = PRODUCT_DEFINITION_SHAPE('Placement','Placement of an item',#987
  );
#987 = NEXT_ASSEMBLY_USAGE_OCCURRENCE('3','Roller','',#27,#960,$);
#988 = PRODUCT_RELATED_PRODUCT_CATEGORY('part',$,(#962));
#989 = CONTEXT_DEPENDENT_SHAPE_REPRESENTATION(#990,#992);
#990 = ( REPRESENTATION_RELATIONSHIP('','',#965,#32) 
REPRESENTATION_RELATIONSHIP_WITH_TRANSFORMATION(#991) 
SHAPE_REPRESENTATION_RELATIONSHIP() );
#991 = ITEM_DEFINED_TRANSFORMATION('','',#11,#45);
#992 = PRODUCT_DEFINITION_SHAPE('Placement','Placement of an item',#993
  );
#993 = NEXT_ASSEMBLY_USAGE_OCCURRENCE('4','Roller','',#27,#960,$);
#994 = CONTEXT_DEPENDENT_SHAPE_REPRESENTATION(#995,#997);
#995 = ( REPRESENTATION_RELATIONSHIP('','',#965,#32) 
REPRESENTATION_RELATIONSHIP_WITH_TRANSFORMATION(#996) 
SHAPE_REPRESENTATION_RELATIONSHIP() );
#996 = ITEM_DEFINED_TRANSFORMATION('','',#11,#49);
#997 = PRODUCT_DEFINITION_SHAPE('Placement','Placement of an item',#998
  );
#998 = NEXT_ASSEMBLY_USAGE_OCCURRENCE('5','Roller','',#27,#960,$);
#999 = CONTEXT_DEPENDENT_SHAPE_REPRESENTATION(#1000,#1002);
#1000 = ( REPRESENTATION_RELATIONSHIP('','',#965,#32) 
REPRESENTATION_RELATIONSHIP_WITH_TRANSFORMATION(#1001) 
SHAPE_REPRESENTATION_RELATIONSHIP() );
#1001 = ITEM_DEFINED_TRANSFORMATION('','',#11,#53);
#1002 = PRODUCT_DEFINITION_SHAPE('Placement','Placement of an item',
  #1003);
#1003 = NEXT_ASSEMBLY_USAGE_OCCURRENCE('6','Roller','',#27,#960,$);
#1004 = CONTEXT_DEPENDENT_SHAPE_REPRESENTATION(#1005,#1007);
#1005 = ( REPRESENTATION_RELATIONSHIP('','',#965,#32) 
REPRESENTATION_RELATIONSHIP_WITH_TRANSFORMATION(#1006) 
SHAPE_REPRESENTATION_RELATIONSHIP() );
#1006 = ITEM_DEFINED_TRANSFORMATION('','',#11,#57);
#1007 = PRODUCT_DEFINITION_SHAPE('Placement','Placement of an item',
  #1008);
#1008 = NEXT_ASSEMBLY_USAGE_OCCURRENCE('7','Roller','',#27,#960,$);
#1009 = CONTEXT_DEPENDENT_SHAPE_REPRESENTATION(#1010,#1012);
#1010 = ( REPRESENTATION_RELATIONSHIP('','',#965,#32) 
REPRESENTATION_RELATIONSHIP_WITH_TRANSFORMATION(#1011) 
SHAPE_REPRESENTATION_RELATIONSHIP() );
#1011 = ITEM_DEFINED_TRANSFORMATION('','',#11,#61);
#1012 = PRODUCT_DEFINITION_SHAPE('Placement','Placement of an item',
  #1013);
#1013 = NEXT_ASSEMBLY_USAGE_OCCURRENCE('8','Roller','',#27,#960,$);
#1014 = CONTEXT_DEPENDENT_SHAPE_REPRESENTATION(#1015,#1017);
#1015 = ( REPRESENTATION_RELATIONSHIP('','',#965,#32) 
REPRESENTATION_RELATIONSHIP_WITH_TRANSFORMATION(#1016) 
SHAPE_REPRESENTATION_RELATIONSHIP() );
#1016 = ITEM_DEFINED_TRANSFORMATION('','',#11,#65);
#1017 = PRODUCT_DEFINITION_SHAPE('Placement','Placement of an item',
  #1018);
#1018 = NEXT_ASSEMBLY_USAGE_OCCURRENCE('9','Roller','',#27,#960,$);
#1019 = CONTEXT_DEPENDENT_SHAPE_REPRESENTATION(#1020,#1022);
#1020 = ( REPRESENTATION_RELATIONSHIP('','',#965,#32) 
REPRESENTATION_RELATIONSHIP_WITH_TRANSFORMATION(#1021) 
SHAPE_REPRESENTATION_RELATIONSHIP() );
#1021 = ITEM_DEFINED_TRANSFORMATION('','',#11,#69);
#1022 = PRODUCT_DEFINITION_SHAPE('Placement','Placement of an item',
  #1023);
#1023 = NEXT_ASSEMBLY_USAGE_OCCURRENCE('10','Roller','',#27,#960,$);
#1024 = CONTEXT_DEPENDENT_SHAPE_REPRESENTATION(#1025,#1027);
#1025 = ( REPRESENTATION_RELATIONSHIP('','',#965,#32) 
REPRESENTATION_RELATIONSHIP_WITH_TRANSFORMATION(#1026) 
SHAPE_REPRESENTATION_RELATIONSHIP() );
#1026 = ITEM_DEFINED_TRANSFORMATION('','',#11,#73);
#1027 = PRODUCT_DEFINITION_SHAPE('Placement','Placement of an item',
  #1028);
#1028 = NEXT_ASSEMBLY_USAGE_OCCURRENCE('11','Roller','',#27,#960,$);
#1029 = CONTEXT_DEPENDENT_SHAPE_REPRESENTATION(#1030,#1032);
#1030 = ( REPRESENTATION_RELATIONSHIP('','',#965,#32) 
REPRESENTATION_RELATIONSHIP_WITH_TRANSFORMATION(#1031) 
SHAPE_REPRESENTATION_RELATIONSHIP() );
#1031 = ITEM_DEFINED_TRANSFORMATION('','',#11,#77);
#1032 = PRODUCT_DEFINITION_SHAPE('Placement','Placement of an item',
  #1033);
#1033 = NEXT_ASSEMBLY_USAGE_OCCURRENCE('12','Roller','',#27,#960,$);
#1034 = CONTEXT_DEPENDENT_SHAPE_REPRESENTATION(#1035,#1037);
#1035 = ( REPRESENTATION_RELATIONSHIP('','',#965,#32) 
REPRESENTATION_RELATIONSHIP_WITH_TRANSFORMATION(#1036) 
SHAPE_REPRESENTATION_RELATIONSHIP() );
#1036 = ITEM_DEFINED_TRANSFORMATION('','',#11,#81);
#1037 = PRODUCT_DEFINITION_SHAPE('Placement','Placement of an item',
  #1038);
#1038 = NEXT_ASSEMBLY_USAGE_OCCURRENCE('13','Roller','',#27,#960,$);
#1039 = CONTEXT_DEPENDENT_SHAPE_REPRESENTATION(#1040,#1042);
#1040 = ( REPRESENTATION_RELATIONSHIP('','',#965,#32) 
REPRESENTATION_RELATIONSHIP_WITH_TRANSFORMATION(#1041) 
SHAPE_REPRESENTATION_RELATIONSHIP() );
#1041 = ITEM_DEFINED_TRANSFORMATION('','',#11,#85);
#1042 = PRODUCT_DEFINITION_SHAPE('Placement','Placement of an item',
  #1043);
#1043 = NEXT_ASSEMBLY_USAGE_OCCURRENCE('14','Roller','',#27,#960,$);
#1044 = CONTEXT_DEPENDENT_SHAPE_REPRESENTATION(#1045,#1047);
#1045 = ( REPRESENTATION_RELATIONSHIP('','',#965,#32) 
REPRESENTATION_RELATIONSHIP_WITH_TRANSFORMATION(#1046) 
SHAPE_REPRESENTATION_RELATIONSHIP() );
#1046 = ITEM_DEFINED_TRANSFORMATION('','',#11,#89);
#1047 = PRODUCT_DEFINITION_SHAPE('Placement','Placement of an item',
  #1048);
#1048 = NEXT_ASSEMBLY_USAGE_OCCURRENCE('15','Roller','',#27,#960,$);
#1049 = CONTEXT_DEPENDENT_SHAPE_REPRESENTATION(#1050,#1052);
#1050 = ( REPRESENTATION_RELATIONSHIP('','',#965,#32) 
REPRESENTATION_RELATIONSHIP_WITH_TRANSFORMATION(#1051) 
SHAPE_REPRESENTATION_RELATIONSHIP() );
#1051 = ITEM_DEFINED_TRANSFORMATION('','',#11,#93);
#1052 = PRODUCT_DEFINITION_SHAPE('Placement','Placement of an item',
  #1053);
#1053 = NEXT_ASSEMBLY_USAGE_OCCURRENCE('16','Roller','',#27,#960,$);
#1054 = SHAPE_DEFINITION_REPRESENTATION(#530,#1055);
#1055 = SHAPE_REPRESENTATION('',(#33),#522);
#1056 = SHAPE_DEFINITION_REPRESENTATION(#955,#1057);
#1057 = SHAPE_REPRESENTATION('',(#37),#947);
#1058 = SHAPE_DEFINITION_REPRESENTATION(#986,#1059);
#1059 = SHAPE_REPRESENTATION('',(#41),#978);
#1060 = SHAPE_DEFINITION_REPRESENTATION(#992,#1061);
#1061 = SHAPE_REPRESENTATION('',(#45),#978);
#1062 = SHAPE_DEFINITION_REPRESENTATION(#997,#1063);
#1063 = SHAPE_REPRESENTATION('',(#49),#978);
#1064 = SHAPE_DEFINITION_REPRESENTATION(#1002,#1065);
#1065 = SHAPE_REPRESENTATION('',(#53),#978);
#1066 = SHAPE_DEFINITION_REPRESENTATION(#1007,#1067);
#1067 = SHAPE_REPRESENTATION('',(#57),#978);
#1068 = SHAPE_DEFINITION_REPRESENTATION(#1012,#1069);
#1069 = SHAPE_REPRESENTATION('',(#61),#978);
#1070 = SHAPE_DEFINITION_REPRESENTATION(#1017,#1071);
#1071 = SHAPE_REPRESENTATION('',(#65),#978);
#1072 = SHAPE_DEFINITION_REPRESENTATION(#1022,#1073);
#1073 = SHAPE_REPRESENTATION('',(#69),#978);
#1074 = SHAPE_DEFINITION_REPRESENTATION(#1027,#1075);
#1075 = SHAPE_REPRESENTATION('',(#73),#978);
#1076 = SHAPE_DEFINITION_REPRESENTATION(#1032,#1077);
#1077 = SHAPE_REPRESENTATION('',(#77),#978);
#1078 = SHAPE_DEFINITION_REPRESENTATION(#1037,#1079);
#1079 = SHAPE_REPRESENTATION('',(#81),#978);
#1080 = SHAPE_DEFINITION_REPRESENTATION(#1042,#1081);
#1081 = SHAPE_REPRESENTATION('',(#85),#978);
#1082 = SHAPE_DEFINITION_REPRESENTATION(#1047,#1083);
#1083 = SHAPE_REPRESENTATION('',(#89),#978);
#1084 = SHAPE_DEFINITION_REPRESENTATION(#1052,#1085);
#1085 = SHAPE_REPRESENTATION('',(#93),#978);
#1086 = SHAPE_DEFINITION_REPRESENTATION(#530,#1087);
#1087 = SHAPE_REPRESENTATION('',(#33),#522);
#1088 = SHAPE_DEFINITION_REPRESENTATION(#955,#1089);
#1089 = SHAPE_REPRESENTATION('',(#37),#947);
#1090 = SHAPE_DEFINITION_REPRESENTATION(#986,#1091);
#1091 = SHAPE_REPRESENTATION('',(#41),#978);
#1092 = SHAPE_DEFINITION_REPRESENTATION(#992,#1093);
#1093 = SHAPE_REPRESENTATION('',(#45),#978);
#1094 = SHAPE_DEFINITION_REPRESENTATION(#997,#1095);
#1095 = SHAPE_REPRESENTATION('',(#49),#978);
#1096 = SHAPE_DEFINITION_REPRESENTATION(#1002,#1097);
#1097 = SHAPE_REPRESENTATION('',(#53),#978);
#1098 = SHAPE_DEFINITION_REPRESENTATION(#1007,#1099);
#1099 = SHAPE_REPRESENTATION('',(#57),#978);
#1100 = SHAPE_DEFINITION_REPRESENTATION(#1012,#1101);
#1101 = SHAPE_REPRESENTATION('',(#61),#978);
#1102 = SHAPE_DEFINITION_REPRESENTATION(#1017,#1103);
#1103 = SHAPE_REPRESENTATION('',(#65),#978);
#1104 = SHAPE_DEFINITION_REPRESENTATION(#1022,#1105);
#1105 = SHAPE_REPRESENTATION('',(#69),#978);
#1106 = SHAPE_DEFINITION_REPRESENTATION(#1027,#1107);
#1107 = SHAPE_REPRESENTATION('',(#73),#978);
#1108 = SHAPE_DEFINITION_REPRESENTATION(#1032,#1109);
#1109 = SHAPE_REPRESENTATION('',(#77),#978);
#1110 = SHAPE_DEFINITION_REPRESENTATION(#1037,#1111);
#1111 = SHAPE_REPRESENTATION('',(#81),#978);
#1112 = SHAPE_DEFINITION_REPRESENTATION(#1042,#1113);
#1113 = SHAPE_REPRESENTATION('',(#85),#978);
#1114 = SHAPE_DEFINITION_REPRESENTATION(#1047,#1115);
#1115 = SHAPE_REPRESENTATION('',(#89),#978);
#1116 = SHAPE_DEFINITION_REPRESENTATION(#1052,#1117);
#1117 = SHAPE_REPRESENTATION('',(#93),#978);
#1118 = MECHANICAL_DESIGN_GEOMETRIC_PRESENTATION_REPRESENTATION('',(
    #1119),#947);
#1119 = STYLED_ITEM('color',(#1120),#541);
#1120 = PRESENTATION_STYLE_ASSIGNMENT((#1121,#1127));
#1121 = SURFACE_STYLE_USAGE(.BOTH.,#1122);
#1122 = SURFACE_SIDE_STYLE('',(#1123));
#1123 = SURFACE_STYLE_FILL_AREA(#1124);
#1124 = FILL_AREA_STYLE('',(#1125));
#1125 = FILL_AREA_STYLE_COLOUR('',#1126);
#1126 = COLOUR_RGB('',0.752941164258,0.752941164258,0.752941164258);
#1127 = CURVE_STYLE('',#1128,POSITIVE_LENGTH_MEASURE(0.1),#1126);
#1128 = DRAUGHTING_PRE_DEFINED_CURVE_FONT('continuous');
#1129 = MECHANICAL_DESIGN_GEOMETRIC_PRESENTATION_REPRESENTATION('',(
    #1130,#1140,#1149,#1158,#1167,#1176,#1185,#1194,#1203,#1212,#1221,
    #1230,#1239,#1248),#978);
#1130 = STYLED_ITEM('color',(#1131),#966);
#1131 = PRESENTATION_STYLE_ASSIGNMENT((#1132,#1138));
#1132 = SURFACE_STYLE_USAGE(.BOTH.,#1133);
#1133 = SURFACE_SIDE_STYLE('',(#1134));
#1134 = SURFACE_STYLE_FILL_AREA(#1135);
#1135 = FILL_AREA_STYLE('',(#1136));
#1136 = FILL_AREA_STYLE_COLOUR('',#1137);
#1137 = COLOUR_RGB('',0.564705893417,0.564705893417,0.564705893417);
#1138 = CURVE_STYLE('',#1139,POSITIVE_LENGTH_MEASURE(0.1),#1137);
#1139 = DRAUGHTING_PRE_DEFINED_CURVE_FONT('continuous');
#1140 = OVER_RIDING_STYLED_ITEM('overriding color',(#1141),#966,#1130);
#1141 = PRESENTATION_STYLE_BY_CONTEXT((#1142,#1147),#1093);
#1142 = SURFACE_STYLE_USAGE(.BOTH.,#1143);
#1143 = SURFACE_SIDE_STYLE('',(#1144));
#1144 = SURFACE_STYLE_FILL_AREA(#1145);
#1145 = FILL_AREA_STYLE('',(#1146));
#1146 = FILL_AREA_STYLE_COLOUR('',#1137);
#1147 = CURVE_STYLE('',#1148,POSITIVE_LENGTH_MEASURE(0.1),#1137);
#1148 = DRAUGHTING_PRE_DEFINED_CURVE_FONT('continuous');
#1149 = OVER_RIDING_STYLED_ITEM('overriding color',(#1150),#966,#1130);
#1150 = PRESENTATION_STYLE_BY_CONTEXT((#1151,#1156),#1095);
#1151 = SURFACE_STYLE_USAGE(.BOTH.,#1152);
#1152 = SURFACE_SIDE_STYLE('',(#1153));
#1153 = SURFACE_STYLE_FILL_AREA(#1154);
#1154 = FILL_AREA_STYLE('',(#1155));
#1155 = FILL_AREA_STYLE_COLOUR('',#1137);
#1156 = CURVE_STYLE('',#1157,POSITIVE_LENGTH_MEASURE(0.1),#1137);
#1157 = DRAUGHTING_PRE_DEFINED_CURVE_FONT('continuous');
#1158 = OVER_RIDING_STYLED_ITEM('overriding color',(#1159),#966,#1130);
#1159 = PRESENTATION_STYLE_BY_CONTEXT((#1160,#1165),#1097);
#1160 = SURFACE_STYLE_USAGE(.BOTH.,#1161);
#1161 = SURFACE_SIDE_STYLE('',(#1162));
#1162 = SURFACE_STYLE_FILL_AREA(#1163);
#1163 = FILL_AREA_STYLE('',(#1164));
#1164 = FILL_AREA_STYLE_COLOUR('',#1137);
#1165 = CURVE_STYLE('',#1166,POSITIVE_LENGTH_MEASURE(0.1),#1137);
#1166 = DRAUGHTING_PRE_DEFINED_CURVE_FONT('continuous');
#1167 = OVER_RIDING_STYLED_ITEM('overriding color',(#1168),#966,#1130);
#1168 = PRESENTATION_STYLE_BY_CONTEXT((#1169,#1174),#1099);
#1169 = SURFACE_STYLE_USAGE(.BOTH.,#1170);
#1170 = SURFACE_SIDE_STYLE('',(#1171));
#1171 = SURFACE_STYLE_FILL_AREA(#1172);
#1172 = FILL_AREA_STYLE('',(#1173));
#1173 = FILL_AREA_STYLE_COLOUR('',#1137);
#1174 = CURVE_STYLE('',#1175,POSITIVE_LENGTH_MEASURE(0.1),#1137);
#1175 = DRAUGHTING_PRE_DEFINED_CURVE_FONT('continuous');
#1176 = OVER_RIDING_STYLED_ITEM('overriding color',(#1177),#966,#1130);
#1177 = PRESENTATION_STYLE_BY_CONTEXT((#1178,#1183),#1101);
#1178 = SURFACE_STYLE_USAGE(.BOTH.,#1179);
#1179 = SURFACE_SIDE_STYLE('',(#1180));
#1180 = SURFACE_STYLE_FILL_AREA(#1181);
#1181 = FILL_AREA_STYLE('',(#1182));
#1182 = FILL_AREA_STYLE_COLOUR('',#1137);
#1183 = CURVE_STYLE('',#1184,POSITIVE_LENGTH_MEASURE(0.1),#1137);
#1184 = DRAUGHTING_PRE_DEFINED_CURVE_FONT('continuous');
#1185 = OVER_RIDING_STYLED_ITEM('overriding color',(#1186),#966,#1130);
#1186 = PRESENTATION_STYLE_BY_CONTEXT((#1187,#1192),#1103);
#1187 = SURFACE_STYLE_USAGE(.BOTH.,#1188);
#1188 = SURFACE_SIDE_STYLE('',(#1189));
#1189 = SURFACE_STYLE_FILL_AREA(#1190);
#1190 = FILL_AREA_STYLE('',(#1191));
#1191 = FILL_AREA_STYLE_COLOUR('',#1137);
#1192 = CURVE_STYLE('',#1193,POSITIVE_LENGTH_MEASURE(0.1),#1137);
#1193 = DRAUGHTING_PRE_DEFINED_CURVE_FONT('continuous');
#1194 = OVER_RIDING_STYLED_ITEM('overriding color',(#1195),#966,#1130);
#1195 = PRESENTATION_STYLE_BY_CONTEXT((#1196,#1201),#1105);
#1196 = SURFACE_STYLE_USAGE(.BOTH.,#1197);
#1197 = SURFACE_SIDE_STYLE('',(#1198));
#1198 = SURFACE_STYLE_FILL_AREA(#1199);
#1199 = FILL_AREA_STYLE('',(#1200));
#1200 = FILL_AREA_STYLE_COLOUR('',#1137);
#1201 = CURVE_STYLE('',#1202,POSITIVE_LENGTH_MEASURE(0.1),#1137);
#1202 = DRAUGHTING_PRE_DEFINED_CURVE_FONT('continuous');
#1203 = OVER_RIDING_STYLED_ITEM('overriding color',(#1204),#966,#1130);
#1204 = PRESENTATION_STYLE_BY_CONTEXT((#1205,#1210),#1107);
#1205 = SURFACE_STYLE_USAGE(.BOTH.,#1206);
#1206 = SURFACE_SIDE_STYLE('',(#1207));
#1207 = SURFACE_STYLE_FILL_AREA(#1208);
#1208 = FILL_AREA_STYLE('',(#1209));
#1209 = FILL_AREA_STYLE_COLOUR('',#1137);
#1210 = CURVE_STYLE('',#1211,POSITIVE_LENGTH_MEASURE(0.1),#1137);
#1211 = DRAUGHTING_PRE_DEFINED_CURVE_FONT('continuous');
#1212 = OVER_RIDING_STYLED_ITEM('overriding color',(#1213),#966,#1130);
#1213 = PRESENTATION_STYLE_BY_CONTEXT((#1214,#1219),#1109);
#1214 = SURFACE_STYLE_USAGE(.BOTH.,#1215);
#1215 = SURFACE_SIDE_STYLE('',(#1216));
#1216 = SURFACE_STYLE_FILL_AREA(#1217);
#1217 = FILL_AREA_STYLE('',(#1218));
#1218 = FILL_AREA_STYLE_COLOUR('',#1137);
#1219 = CURVE_STYLE('',#1220,POSITIVE_LENGTH_MEASURE(0.1),#1137);
#1220 = DRAUGHTING_PRE_DEFINED_CURVE_FONT('continuous');
#1221 = OVER_RIDING_STYLED_ITEM('overriding color',(#1222),#966,#1130);
#1222 = PRESENTATION_STYLE_BY_CONTEXT((#1223,#1228),#1111);
#1223 = SURFACE_STYLE_USAGE(.BOTH.,#1224);
#1224 = SURFACE_SIDE_STYLE('',(#1225));
#1225 = SURFACE_STYLE_FILL_AREA(#1226);
#1226 = FILL_AREA_STYLE('',(#1227));
#1227 = FILL_AREA_STYLE_COLOUR('',#1137);
#1228 = CURVE_STYLE('',#1229,POSITIVE_LENGTH_MEASURE(0.1),#1137);
#1229 = DRAUGHTING_PRE_DEFINED_CURVE_FONT('continuous');
#1230 = OVER_RIDING_STYLED_ITEM('overriding color',(#1231),#966,#1130);
#1231 = PRESENTATION_STYLE_BY_CONTEXT((#1232,#1237),#1113);
#1232 = SURFACE_STYLE_USAGE(.BOTH.,#1233);
#1233 = SURFACE_SIDE_STYLE('',(#1234));
#1234 = SURFACE_STYLE_FILL_AREA(#1235);
#1235 = FILL_AREA_STYLE('',(#1236));
#1236 = FILL_AREA_STYLE_COLOUR('',#1137);
#1237 = CURVE_STYLE('',#1238,POSITIVE_LENGTH_MEASURE(0.1),#1137);
#1238 = DRAUGHTING_PRE_DEFINED_CURVE_FONT('continuous');
#1239 = OVER_RIDING_STYLED_ITEM('overriding color',(#1240),#966,#1130);
#1240 = PRESENTATION_STYLE_BY_CONTEXT((#1241,#1246),#1115);
#1241 = SURFACE_STYLE_USAGE(.BOTH.,#1242);
#1242 = SURFACE_SIDE_STYLE('',(#1243));
#1243 = SURFACE_STYLE_FILL_AREA(#1244);
#1244 = FILL_AREA_STYLE('',(#1245));
#1245 = FILL_AREA_STYLE_COLOUR('',#1137);
#1246 = CURVE_STYLE('',#1247,POSITIVE_LENGTH_MEASURE(0.1),#1137);
#1247 = DRAUGHTING_PRE_DEFINED_CURVE_FONT('continuous');
#1248 = OVER_RIDING_STYLED_ITEM('overriding color',(#1249),#966,#1130);
#1249 = PRESENTATION_STYLE_BY_CONTEXT((#1250,#1255),#1117);
#1250 = SURFACE_STYLE_USAGE(.BOTH.,#1251);
#1251 = SURFACE_SIDE_STYLE('',(#1252));
#1252 = SURFACE_STYLE_FILL_AREA(#1253);
#1253 = FILL_AREA_STYLE('',(#1254));
#1254 = FILL_AREA_STYLE_COLOUR('',#1137);
#1255 = CURVE_STYLE('',#1256,POSITIVE_LENGTH_MEASURE(0.1),#1137);
#1256 = DRAUGHTING_PRE_DEFINED_CURVE_FONT('continuous');
#1257 = MECHANICAL_DESIGN_GEOMETRIC_PRESENTATION_REPRESENTATION('',(
    #1258),#522);
#1258 = STYLED_ITEM('color',(#1259),#116);
#1259 = PRESENTATION_STYLE_ASSIGNMENT((#1260,#1265));
#1260 = SURFACE_STYLE_USAGE(.BOTH.,#1261);
#1261 = SURFACE_SIDE_STYLE('',(#1262));
#1262 = SURFACE_STYLE_FILL_AREA(#1263);
#1263 = FILL_AREA_STYLE('',(#1264));
#1264 = FILL_AREA_STYLE_COLOUR('',#1126);
#1265 = CURVE_STYLE('',#1266,POSITIVE_LENGTH_MEASURE(0.1),#1126);
#1266 = DRAUGHTING_PRE_DEFINED_CURVE_FONT('continuous');
ENDSEC;
END-ISO-10303-21;
